TITLE:   CACAU_011_V2 
FCM: NON-DROP FRAME
001  CACAU_GE V     C        00:00:00:00 00:00:44:00 00:00:00:00 00:00:44:00 
* FROM CLIP NAME:  CACAU_GEN_SYRO_CC_44SEG_LETT
002  20230809 V     C        13:22:22:17 13:22:27:13 00:00:44:00 00:00:48:21 
* FROM CLIP NAME:  011/01  TK1 2X BOA
003  20230809 V     C        13:22:27:13 13:22:29:12 00:00:48:21 00:00:50:20 
* FROM CLIP NAME:  011/01  TK1 2X BOA
004  20230809 V     C        13:22:29:12 13:22:45:03 00:00:50:20 00:01:06:11 
* FROM CLIP NAME:  011/01  TK1 2X BOA
005  20230809 V     C        13:22:45:03 13:22:45:14 00:01:06:11 00:01:06:22 
* FROM CLIP NAME:  011/01  TK1 2X BOA
006  20230810 V     C        10:45:22:19 10:45:23:04 00:01:06:22 00:01:07:07 
* FROM CLIP NAME:  011/01A CLAQ TK1 1X
007  20230810 V     C        10:45:23:04 10:45:28:15 00:01:07:07 00:01:12:18 
* FROM CLIP NAME:  011/01A CLAQ TK1 1X
008  20230810 V     C        10:45:30:06 10:45:38:17 00:01:12:18 00:01:21:04 
* FROM CLIP NAME:  011/01A CLAQ TK1 1X
009  20230810 V     C        10:46:17:19 10:46:23:20 00:01:21:04 00:01:27:05 
* FROM CLIP NAME:  011/01A CLAQ TK1 1X
010  20230810 V     C        10:46:23:05 10:46:27:22 00:01:27:05 00:01:31:22 
* FROM CLIP NAME:  011/01A CLAQ TK1 1X
011  20230810 V     C        10:51:36:04 10:51:59:22 00:01:31:22 00:01:55:15 
* FROM CLIP NAME:  011/01A  TK2 1X
012  20230810 V     C        10:51:59:22 10:52:06:06 00:01:55:15 00:02:01:24 
* FROM CLIP NAME:  011/01A  TK2 1X
013  20230810 V     C        10:52:06:06 10:52:10:05 00:02:01:24 00:02:05:23 
* FROM CLIP NAME:  011/01A  TK2 1X
014  20230810 V     C        10:52:10:07 10:52:13:21 00:02:05:23 00:02:09:12 
* FROM CLIP NAME:  011/01A  TK2 1X
015  20230810 V     C        10:52:13:21 10:52:14:07 00:02:09:12 00:02:09:23 
* FROM CLIP NAME:  011/01A  TK2 1X
016  20230809 V     C        13:22:50:22 13:22:51:07 00:02:09:23 00:02:10:08 
* FROM CLIP NAME:  011/01  TK1 2X BOA
017  20230809 V     C        13:22:51:07 13:23:07:11 00:02:10:08 00:02:26:12 
* FROM CLIP NAME:  011/01  TK1 2X BOA
018  20230809 V     C        13:31:33:21 13:31:39:05 00:02:26:12 00:02:31:21 
* FROM CLIP NAME:  011/01 TK2 2X BOA
019  20230809 V     C        13:31:39:08 13:31:43:14 00:02:31:21 00:02:36:02 
* FROM CLIP NAME:  011/01 TK2 2X BOA
020  20230809 V     C        13:31:44:00 13:31:46:24 00:02:36:02 00:02:39:01 
* FROM CLIP NAME:  011/01 TK2 2X BOA
021  20230809 V     C        13:31:46:24 13:31:51:00 00:02:39:01 00:02:43:02 
* FROM CLIP NAME:  011/01 TK2 2X BOA
022  20230809 V     C        13:31:51:00 13:31:56:11 00:02:43:02 00:02:48:13 
* FROM CLIP NAME:  011/01 TK2 2X BOA
023  A080C022 V     C        13:20:25:12 13:20:27:05 00:02:48:13 00:02:50:06 
* FROM CLIP NAME:  010/31_11/02_07 TK5 1X
024  C024C019 V     C        13:20:27:05 13:20:31:03 00:02:50:06 00:02:54:04 
* FROM CLIP NAME:  010/31_11/02_07 TK5 1X
025  A080C022 V     C        13:20:31:03 13:20:34:00 00:02:54:04 00:02:57:01 
* FROM CLIP NAME:  010/31_11/02_07 TK5 1X
026  B003C014 V     C        12:59:58:15 13:00:04:14 00:02:57:01 00:03:03:00 
* FROM CLIP NAME:  010/31_11/02_07 TK2 1X
027  A080C019 V     C        13:00:04:14 13:00:07:06 00:03:03:00 00:03:05:17 
* FROM CLIP NAME:  010/31_11/02_07 TK2 1X
028  B003C014 V     C        13:00:07:20 13:00:14:01 00:03:05:17 00:03:11:23 
* FROM CLIP NAME:  010/31_11/02_07 TK2 1X
029  C024C019 V     C        13:22:04:13 13:22:07:10 00:03:11:23 00:03:14:20 
* FROM CLIP NAME:  010/31_11/02_07 TK5 1X
030  A080C022 V     C        13:22:07:11 13:22:09:16 00:03:14:20 00:03:17:00 
* FROM CLIP NAME:  010/31_11/02_07 TK5 1X
031  B003C014 V     C        13:00:19:21 13:00:23:00 00:03:17:00 00:03:20:04 
* FROM CLIP NAME:  010/31_11/02_07 TK2 1X
032  A080C022 V     C        13:22:15:08 13:22:19:05 00:03:20:04 00:03:24:01 
* FROM CLIP NAME:  010/31_11/02_07 TK5 1X
033  A080C019 V     C        13:00:26:17 13:00:28:21 00:03:24:01 00:03:26:05 
* FROM CLIP NAME:  010/31_11/02_07 TK2 1X
034  A080C022 V     C        13:22:22:11 13:22:25:05 00:03:26:05 00:03:28:24 
* FROM CLIP NAME:  010/31_11/02_07 TK5 1X
035  B003C014 V     C        13:00:41:11 13:00:44:08 00:03:28:24 00:03:31:21 
* FROM CLIP NAME:  010/31_11/02_07 TK2 1X
036  A080C019 V     C        13:00:44:08 13:00:51:06 00:03:31:21 00:03:38:19 
* FROM CLIP NAME:  010/31_11/02_07 TK2 1X
037  A080C022 V     C        13:22:35:13 13:22:39:10 00:03:38:19 00:03:42:16 
* FROM CLIP NAME:  010/31_11/02_07 TK5 1X
038  A080C019 V     C        13:00:54:13 13:00:55:14 00:03:42:16 00:03:43:17 
* FROM CLIP NAME:  010/31_11/02_07 TK2 1X
039  B003C014 V     C        13:00:56:13 13:00:57:23 00:03:43:17 00:03:45:02 
* FROM CLIP NAME:  010/31_11/02_07 TK2 1X
040  20230720 V     C        15:05:34:16 15:05:36:22 00:03:45:02 00:03:47:08 
* FROM CLIP NAME:  011/03 CLAQ TK 1 1X
041  20230720 V     C        15:05:36:22 15:05:43:16 00:03:47:08 00:03:54:02 
* FROM CLIP NAME:  011/03 CLAQ TK 1 1X
042  20230720 V     C        15:05:43:16 15:05:47:02 00:03:54:02 00:03:57:13 
* FROM CLIP NAME:  011/03 CLAQ TK 1 1X
043  20230720 V     C        15:05:47:02 15:05:49:03 00:03:57:13 00:03:59:14 
* FROM CLIP NAME:  011/03 CLAQ TK 1 1X
044  20230720 V     C        15:15:37:01 15:15:38:22 00:03:59:14 00:04:01:10 
* FROM CLIP NAME:  011/03  TK 2 2X
045  20230720 V     C        15:15:38:22 15:15:40:10 00:04:01:10 00:04:02:23 
* FROM CLIP NAME:  011/03  TK 2 2X
046  20230720 V     C        15:15:40:10 15:15:43:04 00:04:02:23 00:04:05:17 
* FROM CLIP NAME:  011/03  TK 2 2X
047  20230720 V     C        15:15:43:04 15:15:47:22 00:04:05:17 00:04:10:10 
* FROM CLIP NAME:  011/03  TK 2 2X
048  20230720 V     C        15:15:47:22 15:16:00:19 00:04:10:10 00:04:23:07 
* FROM CLIP NAME:  011/03  TK 2 2X
049  20230720 V     C        15:16:00:19 15:16:07:18 00:04:23:07 00:04:30:06 
* FROM CLIP NAME:  011/03  TK 2 2X
050  20230720 V     C        15:16:07:16 15:16:12:24 00:04:30:06 00:04:35:14 
* FROM CLIP NAME:  011/03  TK 2 2X
051  20230720 V     C        15:16:12:24 15:16:16:10 00:04:35:14 00:04:39:00 
* FROM CLIP NAME:  011/03  TK 2 2X
052  20230720 V     C        15:07:17:20 15:07:23:17 00:04:39:00 00:04:44:22 
* FROM CLIP NAME:  011/03 CLAQ TK 1 1X
053  20230720 V     C        15:07:23:17 15:07:27:05 00:04:44:22 00:04:48:10 
* FROM CLIP NAME:  011/03 CLAQ TK 1 1X
054  20230720 V     C        15:17:04:23 15:17:07:24 00:04:48:10 00:04:51:11 
* FROM CLIP NAME:  011/03  TK 2 2X
055  20230720 V     C        15:17:09:22 15:17:14:09 00:04:51:11 00:04:55:23 
* FROM CLIP NAME:  011/03  TK 2 2X
056  20230720 V     C        15:17:15:15 15:17:21:03 00:04:55:23 00:05:01:11 
* FROM CLIP NAME:  011/03  TK 2 2X
057  20230720 V     C        15:17:21:03 15:17:25:02 00:05:01:11 00:05:05:10 
* FROM CLIP NAME:  011/03  TK 2 2X
058  20230720 V     C        15:17:25:02 15:17:29:24 00:05:05:10 00:05:10:07 
* FROM CLIP NAME:  011/03  TK 2 2X
059  20230720 V     C        15:17:29:24 15:17:38:10 00:05:10:07 00:05:18:18 
* FROM CLIP NAME:  011/03  TK 2 2X
060  20230720 V     C        15:17:38:10 15:17:43:10 00:05:18:18 00:05:23:18 
* FROM CLIP NAME:  011/03  TK 2 2X
061  20230720 V     C        15:21:43:19 15:21:46:01 00:05:23:18 00:05:26:00 
* FROM CLIP NAME:  011/03  TK 3 2X
062  20230717 V     C        10:59:30:04 10:59:40:18 00:05:26:00 00:05:36:14 
* FROM CLIP NAME:  011/04 CLAQ TK 1 1X
063  20230717 V     C        10:59:40:18 10:59:47:01 00:05:36:14 00:05:42:22 
* FROM CLIP NAME:  011/04 CLAQ TK 1 1X 
* LOC: 00:05:39:17 BLUE    REZISE
064  20230717 V     C        10:59:47:01 10:59:49:15 00:05:42:22 00:05:45:11 
* FROM CLIP NAME:  011/04 CLAQ TK 1 1X
065  20230717 V     C        10:59:49:15 10:59:54:13 00:05:45:11 00:05:50:09 
* FROM CLIP NAME:  011/04 CLAQ TK 1 1X
066  20230717 V     C        10:59:54:13 10:59:59:02 00:05:50:09 00:05:54:23 
* FROM CLIP NAME:  011/04 CLAQ TK 1 1X
067  20230717 V     C        11:05:15:04 11:05:19:18 00:05:54:23 00:05:59:12 
* FROM CLIP NAME:  011/04  TK 2 1X 
* LOC: 00:05:57:05 BLUE    REZISE (ZOOM IN)
068  20230717 V     C        11:05:19:18 11:05:24:20 00:05:59:12 00:06:04:14 
* FROM CLIP NAME:  011/04  TK 2 1X 
* LOC: 00:06:02:00 BLUE    REZISE
069  20230717 V     C        11:00:14:14 11:00:20:21 00:06:04:14 00:06:10:21 
* FROM CLIP NAME:  011/04 CLAQ TK 1 1X
070  20230717 V     C        11:05:32:21 11:05:37:10 00:06:10:21 00:06:15:10 
* FROM CLIP NAME:  011/04  TK 2 1X
071  B016C008 V     C        11:05:56:11 11:06:08:04 00:06:15:10 00:06:27:03 
* FROM CLIP NAME:  011/05 TK5 1X
072  B016C004 V     C        10:30:27:18 10:30:46:17 00:06:27:03 00:06:46:02 
* FROM CLIP NAME:  011/05 TK1 1X
073  A015C006 V     C        10:50:09:15 10:50:12:23 00:06:46:02 00:06:49:10 
* FROM CLIP NAME:  011/05 TK4 1X
074  B016C004 V     C        10:30:48:03 10:30:51:05 00:06:49:10 00:06:52:12 
* FROM CLIP NAME:  011/05 TK1 1X
075  A015C004 V     C        10:40:07:10 10:40:10:02 00:06:52:12 00:06:55:04 
* FROM CLIP NAME:  011/05 TK2 1X.GRP.01
076  B016C004 V     C        10:30:51:24 10:30:54:11 00:06:55:04 00:06:57:16 
* FROM CLIP NAME:  011/05 TK1 1X
077  B016C006 V     C        10:50:17:14 10:50:19:12 00:06:57:16 00:06:59:14 
* FROM CLIP NAME:  011/05 TK4 1X
078  A015C005 V     C        10:43:40:09 10:43:46:03 00:06:59:14 00:07:05:08 
* FROM CLIP NAME:  011/05 TK3 1X
079  B016C004 V     C        10:30:59:01 10:31:03:10 00:07:05:08 00:07:09:17 
* FROM CLIP NAME:  011/05 TK1 1X
080  A015C006 V     C        10:50:30:23 10:50:35:16 00:07:09:17 00:07:14:10 
* FROM CLIP NAME:  011/05 TK4 1X
081  B016C006 V     C        10:50:43:12 10:50:50:20 00:07:14:10 00:07:21:18 
* FROM CLIP NAME:  011/05 TK4 1X
082  A015C005 V     C        10:44:05:05 10:44:07:04 00:07:21:18 00:07:23:17 
* FROM CLIP NAME:  011/05 TK3 1X
083  20230720 V     C        15:37:48:18 15:37:55:04 00:07:23:17 00:07:30:03 
* FROM CLIP NAME:  011/06  TK 2 1X
084  20230720 V     C        15:31:47:24 15:31:51:07 00:07:30:03 00:07:33:11 
* FROM CLIP NAME:  011/06 CLAQ TK 1 1X
085  20230720 V     C        15:37:59:19 15:38:02:09 00:07:33:11 00:07:36:01 
* FROM CLIP NAME:  011/06  TK 2 1X
086  20230720 V     C        15:38:02:09 15:38:05:13 00:07:36:01 00:07:39:05 
* FROM CLIP NAME:  011/06  TK 2 1X
087  20230720 V     C        15:38:05:06 15:38:13:03 00:07:39:05 00:07:47:02 
* FROM CLIP NAME:  011/06  TK 2 1X
088  20230720 V     C        15:38:13:03 15:38:15:19 00:07:47:02 00:07:49:18 
* FROM CLIP NAME:  011/06  TK 2 1X
089  20230720 V     C        15:38:15:19 15:38:19:14 00:07:49:18 00:07:53:13 
* FROM CLIP NAME:  011/06  TK 2 1X
090  20230720 V     C        15:38:19:14 15:38:24:20 00:07:53:13 00:07:58:19 
* FROM CLIP NAME:  011/06  TK 2 1X
091  20230720 V     C        15:38:24:20 15:38:27:02 00:07:58:19 00:08:01:01 
* FROM CLIP NAME:  011/06  TK 2 1X
092  20230720 V     C        15:32:19:00 15:32:31:04 00:08:01:01 00:08:13:05 
* FROM CLIP NAME:  011/06 CLAQ TK 1 1X
093  20230720 V     C        15:32:31:04 15:32:34:24 00:08:13:05 00:08:17:00 
* FROM CLIP NAME:  011/06 CLAQ TK 1 1X
094  20230720 V     C        15:38:41:19 15:38:45:18 00:08:17:00 00:08:20:24 
* FROM CLIP NAME:  011/06  TK 2 1X
095  20230720 V     C        15:38:45:18 15:38:53:01 00:08:20:24 00:08:28:07 
* FROM CLIP NAME:  011/06  TK 2 1X
096  20230720 V     C        15:38:56:21 15:39:00:16 00:08:28:07 00:08:32:02 
* FROM CLIP NAME:  011/06  TK 2 1X
097  20230720 V     C        15:32:52:18 15:32:57:07 00:08:32:02 00:08:36:16 
* FROM CLIP NAME:  011/06 CLAQ TK 1 1X
098  20230720 V     C        15:39:11:12 15:39:15:12 00:08:36:16 00:08:40:16 
* FROM CLIP NAME:  011/06  TK 2 1X
099  20230720 V     C        15:32:57:08 15:32:59:17 00:08:40:16 00:08:43:00 
* FROM CLIP NAME:  011/06 CLAQ TK 1 1X
100  A080C019 V     C        13:01:29:23 13:01:33:11 00:08:43:00 00:08:46:13 
* FROM CLIP NAME:  010/31_11/02_07 TK2 1X
101  C024C020 V     C        13:25:34:15 13:25:39:09 00:08:46:13 00:08:51:07 
* FROM CLIP NAME:  C024C020_230908Q7.NEW.01
102  A080C023 V     C        13:25:39:09 13:25:41:06 00:08:51:07 00:08:53:04 
* FROM CLIP NAME:  A080C023_230908OI.NEW.01
103  A080C019 V     C        13:01:39:22 13:01:41:09 00:08:53:04 00:08:54:16 
* FROM CLIP NAME:  010/31_11/02_07 TK2 1X
104  B003C014 V     C        13:01:41:09 13:01:43:18 00:08:54:16 00:08:57:00 
* FROM CLIP NAME:  010/31_11/02_07 TK2 1X
105  A080C023 V     C        13:25:45:12 13:25:47:19 00:08:57:00 00:08:59:07 
* FROM CLIP NAME:  A080C023_230908OI.NEW.01
106  B003C014 V     C        13:01:46:17 13:01:49:20 00:08:59:07 00:09:02:10 
* FROM CLIP NAME:  010/31_11/02_07 TK2 1X
107  A080C019 V     C        13:01:49:20 13:01:52:21 00:09:02:10 00:09:05:11 
* FROM CLIP NAME:  010/31_11/02_07 TK2 1X
108  B003C014 V     C        13:01:52:20 13:01:54:04 00:09:05:11 00:09:06:20 
* FROM CLIP NAME:  010/31_11/02_07 TK2 1X
109  A080C023 V     C        13:25:56:20 13:26:01:11 00:09:06:20 00:09:11:11 
* FROM CLIP NAME:  A080C023_230908OI.NEW.01
110  B003C014 V     C        13:01:58:22 13:02:03:08 00:09:11:11 00:09:15:22 
* FROM CLIP NAME:  010/31_11/02_07 TK2 1X
111  A080C019 V     C        13:02:03:09 13:02:05:08 00:09:15:22 00:09:17:21 
* FROM CLIP NAME:  010/31_11/02_07 TK2 1X
112  B003C014 V     C        13:02:05:08 13:02:06:22 00:09:17:21 00:09:19:10 
* FROM CLIP NAME:  010/31_11/02_07 TK2 1X
113  A080C023 V     C        13:26:08:20 13:26:10:21 00:09:19:10 00:09:21:11 
* FROM CLIP NAME:  A080C023_230908OI.NEW.01
114  A080C019 V     C        13:02:08:13 13:02:09:22 00:09:21:11 00:09:22:20 
* FROM CLIP NAME:  010/31_11/02_07 TK2 1X
115  A080C023 V     C        13:26:12:05 13:26:15:01 00:09:22:20 00:09:25:16 
* FROM CLIP NAME:  A080C023_230908OI.NEW.01
116  B003C014 V     C        13:02:13:07 13:02:16:02 00:09:25:16 00:09:28:11 
* FROM CLIP NAME:  010/31_11/02_07 TK2 1X
117  A080C023 V     C        13:26:19:11 13:26:24:12 00:09:28:11 00:09:33:12 
* FROM CLIP NAME:  A080C023_230908OI.NEW.01
118  C024C020 V     C        13:26:24:12 13:26:35:04 00:09:33:12 00:09:44:04 
* FROM CLIP NAME:  C024C020_230908Q7.NEW.01
119  A080C023 V     C        13:26:35:02 13:26:39:19 00:09:44:04 00:09:48:21 
* FROM CLIP NAME:  A080C023_230908OI.NEW.01
120  B003C015 V     C        13:08:35:20 13:08:39:02 00:09:48:21 00:09:52:03 
* FROM CLIP NAME:  B003C015_230908OG.NEW.01
121  B003C019 V     C        13:30:44:18 13:30:50:19 00:09:52:03 00:09:58:04 
* FROM CLIP NAME:  B003C019_230908S9.NEW.01
122  B003C015 V     C        13:08:44:22 13:09:01:17 00:09:58:04 00:10:14:24 
* FROM CLIP NAME:  B003C015_230908OG.NEW.01
123  20230810 V     C        11:39:44:17 11:39:47:01 00:10:14:24 00:10:17:08 
* FROM CLIP NAME:  011/08 CLAQ TK1 1X
124  20230810 V     C        11:39:47:01 11:39:49:05 00:10:17:08 00:10:19:12 
* FROM CLIP NAME:  011/08 CLAQ TK1 1X
125  20230810 V     C        11:39:49:05 11:39:52:14 00:10:19:12 00:10:22:21 
* FROM CLIP NAME:  011/08 CLAQ TK1 1X
126  20230810 V     C        11:47:41:01 11:47:52:18 00:10:22:21 00:10:34:13 
* FROM CLIP NAME:  011/08  TK3 1X
127  20230810 V     C        11:40:02:05 11:40:05:04 00:10:34:13 00:10:37:12 
* FROM CLIP NAME:  011/08 CLAQ TK1 1X
128  20230810 V     C        11:40:05:04 11:40:06:20 00:10:37:12 00:10:39:03 
* FROM CLIP NAME:  011/08 CLAQ TK1 1X
129  20230810 V     C        11:40:06:20 11:40:09:05 00:10:39:03 00:10:41:13 
* FROM CLIP NAME:  011/08 CLAQ TK1 1X
130  20230810 V     C        11:40:09:05 11:40:10:13 00:10:41:13 00:10:42:21 
* FROM CLIP NAME:  011/08 CLAQ TK1 1X
131  20230810 V     C        11:40:10:13 11:40:14:19 00:10:42:21 00:10:47:02 
* FROM CLIP NAME:  011/08 CLAQ TK1 1X
132  20230810 V     C        11:44:34:13 11:44:37:04 00:10:47:02 00:10:49:18 
* FROM CLIP NAME:  011/08  INSERT VIDEO DA FICHA
133  20230810 V     C        11:40:17:10 11:40:19:24 00:10:49:18 00:10:52:07 
* FROM CLIP NAME:  011/08 CLAQ TK1 1X
134  20230810 V     C        11:40:19:24 11:40:26:09 00:10:52:07 00:10:58:17 
* FROM CLIP NAME:  011/08 CLAQ TK1 1X
135  20230810 V     C        11:44:59:00 11:45:04:00 00:10:58:17 00:11:03:17 
* FROM CLIP NAME:  011/08  INSERT VIDEO DA FICHA
136  20230810 V     C        11:40:27:19 11:40:30:02 00:11:03:17 00:11:06:00 
* FROM CLIP NAME:  011/08 CLAQ TK1 1X
137  20230810 V     C        11:40:30:02 11:40:32:20 00:11:06:00 00:11:08:18 
* FROM CLIP NAME:  011/08 CLAQ TK1 1X
138  20230810 V     C        11:40:32:20 11:40:37:17 00:11:08:18 00:11:13:15 
* FROM CLIP NAME:  011/08 CLAQ TK1 1X
139  20230810 V     C        11:41:02:04 11:41:04:20 00:11:13:15 00:11:16:06 
* FROM CLIP NAME:  011/08 CLAQ TK1 1X
140  20230810 V     C        11:41:04:20 11:41:07:04 00:11:16:06 00:11:18:15 
* FROM CLIP NAME:  011/08 CLAQ TK1 1X
141  20230810 V     C        11:41:07:04 11:41:12:00 00:11:18:15 00:11:23:11 
* FROM CLIP NAME:  011/08 CLAQ TK1 1X
142  20230926 V     C        00:00:08:00 00:00:11:15 00:11:23:11 00:11:27:01 
* FROM CLIP NAME:  CACAU_SS_DRONE_CASA
143  20230811 V     C        14:55:18:20 14:55:31:14 00:11:27:01 00:11:39:20 
* FROM CLIP NAME:  011/09  TK2 1X
144  20230811 V     C        14:47:14:20 14:47:20:11 00:11:39:20 00:11:45:11 
* FROM CLIP NAME:  011/09 CLAQ TK1 1X
145  20230811 V     C        14:47:38:03 14:47:41:24 00:11:45:11 00:11:49:07 
* FROM CLIP NAME:  011/09 CLAQ TK1 1X 
* LOC: 00:11:47:10 BLUE    REZISE
146  20230811 V     C        14:47:41:24 14:47:46:14 00:11:49:07 00:11:53:22 
* FROM CLIP NAME:  011/09 CLAQ TK1 1X
147  20230811 V     C        14:47:46:14 14:47:49:02 00:11:53:22 00:11:56:10 
* FROM CLIP NAME:  011/09 CLAQ TK1 1X
148  20230811 V     C        14:47:49:02 14:47:52:09 00:11:56:10 00:11:59:17 
* FROM CLIP NAME:  011/09 CLAQ TK1 1X
149  20230811 V     C        14:47:52:09 14:47:55:06 00:11:59:17 00:12:02:14 
* FROM CLIP NAME:  011/09 CLAQ TK1 1X
150  20230811 V     C        14:47:55:06 14:48:01:09 00:12:02:14 00:12:08:17 
* FROM CLIP NAME:  011/09 CLAQ TK1 1X
151  20230811 V     C        14:56:38:19 14:56:44:13 00:12:08:17 00:12:14:11 
* FROM CLIP NAME:  011/09  TK2 1X
152  20230811 V     C        14:56:44:13 14:56:44:24 00:12:14:11 00:12:14:22 
* FROM CLIP NAME:  011/09  TK2 1X
153  20230810 V     C        11:19:28:01 11:19:28:11 00:12:14:22 00:12:15:07 
* FROM CLIP NAME:  011/09A TK1 2X BOA
154  20230810 V     C        11:19:28:11 11:19:32:05 00:12:15:07 00:12:19:01 
* FROM CLIP NAME:  011/09A TK1 2X BOA
155  20230810 V     C        11:19:32:05 11:19:39:23 00:12:19:01 00:12:26:19 
* FROM CLIP NAME:  011/09A TK1 2X BOA
156  20230810 V     C        11:19:39:23 11:19:48:19 00:12:26:19 00:12:35:15 
* FROM CLIP NAME:  011/09A TK1 2X BOA
157  20230810 V     C        11:19:48:19 11:19:54:04 00:12:35:15 00:12:41:00 
* FROM CLIP NAME:  011/09A TK1 2X BOA
158  20230810 V     C        11:19:54:04 11:19:58:00 00:12:41:00 00:12:44:21 
* FROM CLIP NAME:  011/09A TK1 2X BOA
159  20230810 V     C        11:19:58:00 11:20:03:07 00:12:44:21 00:12:50:03 
* FROM CLIP NAME:  011/09A TK1 2X BOA
160  20230810 V     C        11:20:03:22 11:20:06:03 00:12:50:03 00:12:52:09 
* FROM CLIP NAME:  011/09A TK1 2X BOA
161  20230810 V     C        11:20:06:16 11:20:12:21 00:12:52:09 00:12:58:14 
* FROM CLIP NAME:  011/09A TK1 2X BOA
162  20230810 V     C        11:20:12:21 11:20:15:12 00:12:58:14 00:13:01:05 
* FROM CLIP NAME:  011/09A TK1 2X BOA
163  20230810 V     C        11:20:15:12 11:20:19:07 00:13:01:05 00:13:05:00 
* FROM CLIP NAME:  011/09A TK1 2X BOA
164  20230810 V     C        11:20:19:07 11:20:22:05 00:13:05:00 00:13:07:23 
* FROM CLIP NAME:  011/09A TK1 2X BOA
165  20230810 V     C        11:20:22:05 11:20:28:05 00:13:07:23 00:13:13:23 
* FROM CLIP NAME:  011/09A TK1 2X BOA
166  20230810 V     C        11:20:28:05 11:20:32:01 00:13:13:23 00:13:17:19 
* FROM CLIP NAME:  011/09A TK1 2X BOA
167  20230810 V     C        11:20:32:01 11:20:37:07 00:13:17:19 00:13:23:00 
* FROM CLIP NAME:  011/09A TK1 2X BOA
168  20230810 V     C        11:20:37:07 11:20:40:17 00:13:23:00 00:13:26:10 
* FROM CLIP NAME:  011/09A TK1 2X BOA
169  20230810 V     C        11:20:40:17 11:20:45:18 00:13:26:10 00:13:31:11 
* FROM CLIP NAME:  011/09A TK1 2X BOA
170  20230810 V     C        11:20:45:18 11:20:49:01 00:13:31:11 00:13:34:19 
* FROM CLIP NAME:  011/09A TK1 2X BOA
171  20230810 V     C        11:20:49:01 11:20:52:07 00:13:34:19 00:13:38:00 
* FROM CLIP NAME:  011/09A TK1 2X BOA
172  20230810 V     C        11:20:52:07 11:20:54:05 00:13:38:00 00:13:39:23 
* FROM CLIP NAME:  011/09A TK1 2X BOA
173  20230810 V     C        11:20:54:05 11:20:56:23 00:13:39:23 00:13:42:16 
* FROM CLIP NAME:  011/09A TK1 2X BOA
174  20230810 V     C        11:20:56:23 11:20:59:15 00:13:42:16 00:13:45:08 
* FROM CLIP NAME:  011/09A TK1 2X BOA
175  20230810 V     C        11:20:59:15 11:21:02:14 00:13:45:08 00:13:48:07 
* FROM CLIP NAME:  011/09A TK1 2X BOA
176  20230810 V     C        11:21:02:14 11:21:05:05 00:13:48:07 00:13:50:23 
* FROM CLIP NAME:  011/09A TK1 2X BOA
177  20230810 V     C        11:21:05:05 11:21:10:19 00:13:50:23 00:13:56:12 
* FROM CLIP NAME:  011/09A TK1 2X BOA
178  20230810 V     C        11:21:20:10 11:21:24:13 00:13:56:12 00:14:00:15 
* FROM CLIP NAME:  011/09A TK1 2X BOA
179  20230810 V     C        11:21:24:13 11:21:32:21 00:14:00:15 00:14:08:23 
* FROM CLIP NAME:  011/09A TK1 2X BOA
180  20230810 V     C        11:22:06:14 11:22:09:19 00:14:08:23 00:14:12:03 
* FROM CLIP NAME:  011/09A TK1 2X BOA
181  20230810 V     C        11:22:09:19 11:22:13:16 00:14:12:03 00:14:16:00 
* FROM CLIP NAME:  011/09A TK1 2X BOA
182  20230810 V     C        11:22:13:16 11:22:17:04 00:14:16:00 00:14:19:13 
* FROM CLIP NAME:  011/09A TK1 2X BOA
183  20230810 V     C        11:22:17:04 11:22:24:10 00:14:19:13 00:14:26:19 
* FROM CLIP NAME:  011/09A TK1 2X BOA
184  20230810 V     C        11:22:24:10 11:22:27:03 00:14:26:19 00:14:29:12 
* FROM CLIP NAME:  011/09A TK1 2X BOA
185  20230810 V     C        11:22:27:03 11:22:29:05 00:14:29:12 00:14:31:14 
* FROM CLIP NAME:  011/09A TK1 2X BOA
186  20230810 V     C        11:22:29:05 11:22:33:01 00:14:31:14 00:14:35:10 
* FROM CLIP NAME:  011/09A TK1 2X BOA
187  20230810 V     C        11:22:33:01 11:22:36:06 00:14:35:10 00:14:38:15 
* FROM CLIP NAME:  011/09A TK1 2X BOA
188  20230810 V     C        11:22:36:06 11:22:36:17 00:14:38:15 00:14:39:01 
* FROM CLIP NAME:  011/09A TK1 2X BOA
189  20230811 V     C        14:56:45:12 14:56:45:22 00:14:39:01 00:14:39:11 
* FROM CLIP NAME:  011/09  TK2 1X
190  20230811 V     C        14:56:45:22 14:56:49:05 00:14:39:11 00:14:42:19 
* FROM CLIP NAME:  011/09  TK2 1X
191  20230811 V     C        14:48:14:16 14:48:17:03 00:14:42:19 00:14:45:06 
* FROM CLIP NAME:  011/09 CLAQ TK1 1X
192  20230811 V     C        14:56:54:16 14:57:01:07 00:14:45:06 00:14:51:22 
* FROM CLIP NAME:  011/09  TK2 1X
193  20230811 V     C        14:56:59:19 14:57:02:16 00:14:51:22 00:14:54:19 
* FROM CLIP NAME:  011/09  TK2 1X
194  DJI_2023 V     C        00:00:07:17 00:00:10:15 00:14:54:19 00:14:57:17 
* FROM CLIP NAME:  DJI_20230920093204_0016_D.NEW.01
195  20230802 V     C        10:08:57:16 10:09:01:10 00:14:57:17 00:15:01:11 
* FROM CLIP NAME:  011/10 CLAQ TK1 1X BOA
196  20230802 V     C        10:09:01:10 10:09:05:17 00:15:01:11 00:15:05:18 
* FROM CLIP NAME:  011/10 CLAQ TK1 1X BOA
197  20230802 V     C        10:09:05:17 10:09:07:08 00:15:05:18 00:15:07:09 
* FROM CLIP NAME:  011/10 CLAQ TK1 1X BOA
198  20230802 V     C        10:09:07:08 10:09:11:03 00:15:07:09 00:15:11:04 
* FROM CLIP NAME:  011/10 CLAQ TK1 1X BOA
199  20230802 V     C        10:09:11:03 10:09:14:00 00:15:11:04 00:15:14:01 
* FROM CLIP NAME:  011/10 CLAQ TK1 1X BOA
200  20230802 V     C        10:09:14:00 10:09:18:04 00:15:14:01 00:15:18:05 
* FROM CLIP NAME:  011/10 CLAQ TK1 1X BOA
201  20230802 V     C        10:09:18:04 10:09:21:09 00:15:18:05 00:15:21:10 
* FROM CLIP NAME:  011/10 CLAQ TK1 1X BOA
202  20230802 V     C        10:09:21:09 10:09:23:19 00:15:21:10 00:15:23:20 
* FROM CLIP NAME:  011/10 CLAQ TK1 1X BOA
203  20230802 V     C        10:09:23:19 10:09:27:09 00:15:23:20 00:15:27:10 
* FROM CLIP NAME:  011/10 CLAQ TK1 1X BOA
204  20230802 V     C        10:13:18:23 10:13:21:13 00:15:27:10 00:15:30:00 
* FROM CLIP NAME:  011/10 TK2 1X BOA
205  20230802 V     C        10:13:21:24 10:13:27:20 00:15:30:00 00:15:35:21 
* FROM CLIP NAME:  011/10 TK2 1X BOA
206  20230802 V     C        10:13:27:20 10:13:29:23 00:15:35:21 00:15:37:24 
* FROM CLIP NAME:  011/10 TK2 1X BOA
207  20230802 V     C        10:13:30:10 10:13:34:11 00:15:37:24 00:15:42:00 
* FROM CLIP NAME:  011/10 TK2 1X BOA
208  20230802 V     C        10:13:36:03 10:13:38:12 00:15:42:00 00:15:44:09 
* FROM CLIP NAME:  011/10 TK2 1X BOA
209  20230802 V     C        10:13:38:12 10:13:40:05 00:15:44:09 00:15:46:02 
* FROM CLIP NAME:  011/10 TK2 1X BOA
210  20230802 V     C        10:13:39:19 10:13:41:24 00:15:46:02 00:15:48:07 
* FROM CLIP NAME:  011/10 TK2 1X BOA
211  20230802 V     C        10:13:42:16 10:13:45:11 00:15:48:07 00:15:51:02 
* FROM CLIP NAME:  011/10 TK2 1X BOA
212  20230802 V     C        10:13:45:11 10:13:50:09 00:15:51:02 00:15:56:00 
* FROM CLIP NAME:  011/10 TK2 1X BOA
213  20230802 V     C        10:13:52:12 10:13:55:16 00:15:56:00 00:15:59:04 
* FROM CLIP NAME:  011/10 TK2 1X BOA
214  20230717 V     C        11:11:17:16 11:11:27:04 00:15:59:04 00:16:08:17 
* FROM CLIP NAME:  011/11  TK 1 2X
215  20230717 V     C        11:11:27:04 11:11:33:10 00:16:08:17 00:16:14:23 
* FROM CLIP NAME:  011/11  TK 1 2X
216  20230717 V     C        11:11:37:15 11:11:42:10 00:16:14:23 00:16:19:18 
* FROM CLIP NAME:  011/11  TK 1 2X
217  20230717 V     C        11:11:42:20 11:11:49:23 00:16:19:18 00:16:26:21 
* FROM CLIP NAME:  011/11  TK 1 2X
218  20230717 V     C        11:11:51:12 11:11:55:23 00:16:26:21 00:16:31:07 
* FROM CLIP NAME:  011/11  TK 1 2X
219  S001C017 V     C        13:08:38:11 13:08:47:00 00:16:31:07 00:16:39:21 
* FROM CLIP NAME:  011/13 TK1 1X 
* LOC: 00:16:31:07 CYAN    CENA 12 ANULADA
220  A056C025 V     C        13:13:18:18 13:13:22:06 00:16:39:21 00:16:43:09 
* FROM CLIP NAME:  011/13 TK2 1X
221  S001C017 V     C        13:08:51:08 13:08:57:16 00:16:43:09 00:16:49:17 
* FROM CLIP NAME:  011/13 TK1 1X
222  20230811 V     C        15:01:06:04 15:01:17:09 00:16:49:17 00:17:00:22 
* FROM CLIP NAME:  011/14 CLAQ TK1 1X
223  20230811 V     C        15:01:17:09 15:01:19:04 00:17:00:22 00:17:02:17 
* FROM CLIP NAME:  011/14 CLAQ TK1 1X
224  20230811 V     C        15:01:18:19 15:01:20:05 00:17:02:17 00:17:04:03 
* FROM CLIP NAME:  011/14 CLAQ TK1 1X
225  20230811 V     C        15:01:20:05 15:01:20:16 00:17:04:03 00:17:04:14 
* FROM CLIP NAME:  011/14 CLAQ TK1 1X
226  B007C004 V     C        10:59:17:19 10:59:18:04 00:17:04:14 00:17:04:24 
* FROM CLIP NAME:  011/14A TK1 1X
227  B007C004 V     C        10:59:18:04 10:59:21:01 00:17:04:24 00:17:07:21 
* FROM CLIP NAME:  011/14A TK1 1X
228  B007C005 V     C        11:13:09:08 11:13:13:00 00:17:07:21 00:17:11:13 
* FROM CLIP NAME:  011/14A TK2 1X
229  B007C006 V     C        11:23:10:15 11:23:13:16 00:17:11:13 00:17:14:14 
* FROM CLIP NAME:  011/14A TK3 1X
230  A006C004 V     C        10:59:34:23 10:59:39:23 00:17:14:14 00:17:19:14 
* FROM CLIP NAME:  011/14A TK1 1X
231  A007C001 V     C        11:33:50:15 11:33:52:21 00:17:19:14 00:17:21:20 
* FROM CLIP NAME:  011/14A FRASCO TK1 1X SM
232  A007C001 V     C        11:33:58:01 11:34:01:18 00:17:21:20 00:17:25:12 
* FROM CLIP NAME:  011/14A FRASCO TK1 1X SM
233  A007C001 V     C        11:34:05:24 11:34:10:07 00:17:25:12 00:17:29:20 
* FROM CLIP NAME:  011/14A FRASCO TK1 1X SM
234  B007C006 V     C        11:23:23:02 11:23:26:03 00:17:29:20 00:17:32:21 
* FROM CLIP NAME:  011/14A TK3 1X
235  A006C004 V     C        10:59:46:02 10:59:49:00 00:17:32:21 00:17:35:19 
* FROM CLIP NAME:  011/14A TK1 1X
236  B007C010 V     C        11:55:27:04 11:55:28:15 00:17:35:19 00:17:37:05 
* FROM CLIP NAME:  011/14A TK7 1X SM
237  B007C011 V     C        11:58:32:22 11:58:34:12 00:17:37:05 00:17:38:20 
* FROM CLIP NAME:  011/14A TK8 1X SM
238  B007C006 V     C        11:23:30:20 11:23:32:14 00:17:38:20 00:17:40:14 
* FROM CLIP NAME:  011/14A TK3 1X
239  B007C011 V     C        11:58:34:12 11:58:35:19 00:17:40:14 00:17:41:21 
* FROM CLIP NAME:  011/14A TK8 1X SM
240  B007C006 V     C        11:23:34:21 11:23:36:15 00:17:41:21 00:17:43:15 
* FROM CLIP NAME:  011/14A TK3 1X
241  B007C008 V     C        11:42:41:07 11:42:42:12 00:17:43:15 00:17:44:20 
* FROM CLIP NAME:  011/14A 5TK 1X SM
242  SIGNATUR V     C        00:00:41:19 00:00:42:03 00:17:44:20 00:17:45:11 
M2   SIGNATUR       012.5                00:00:41:19 
* FROM CLIP NAME:  011/14A.LET,VIDEO MIXDOWN,1 (12.50 FPS) 
* LOC: 00:17:45:03 BLUE    REZISE
243  B007C008 V     C        11:42:43:15 11:42:45:03 00:17:45:11 00:17:46:24 
* FROM CLIP NAME:  011/14A 5TK 1X SM
244  A007C006 V     C        11:51:19:00 11:51:22:14 00:17:46:24 00:17:50:13 
* FROM CLIP NAME:  011/14A
245  B007C007 V     C        11:29:19:18 11:29:21:11 00:17:50:13 00:17:52:06 
* FROM CLIP NAME:  011/14A TK4 1X SM
246  B007C020 V     C        12:45:13:09 12:45:15:24 00:17:52:06 00:17:54:21 
* FROM CLIP NAME:  011/14A TK14 1X
247  B007C021 V     C        12:51:38:22 12:51:40:15 00:17:54:21 00:17:56:14 
* FROM CLIP NAME:  011/14A TK15 1X
248  B007C021 V     C        12:51:35:24 12:51:37:09 00:17:56:14 00:17:57:24 
* FROM CLIP NAME:  011/14A TK15 1X
249  B007C021 V     C        12:51:37:09 12:51:37:20 00:17:57:24 00:17:58:10 
* FROM CLIP NAME:  011/14A TK15 1X
250  20230811 V     C        15:03:18:07 15:03:18:17 00:17:58:10 00:17:58:20 
* FROM CLIP NAME:  011/14  TK2 1X
251  20230811 V     C        15:03:18:17 15:03:29:07 00:17:58:20 00:18:09:10 
* FROM CLIP NAME:  011/14  TK2 1X
252  20230811 V     C        15:06:14:01 15:06:18:08 00:18:09:10 00:18:13:17 
* FROM CLIP NAME:  011/14  TK3 1X
253  20230811 V     C        15:06:18:08 15:06:43:06 00:18:13:17 00:18:38:15 
* FROM CLIP NAME:  011/14  TK3 1X
254  A056C021 V     C        12:49:25:10 12:49:34:10 00:18:38:15 00:18:47:15 
* FROM CLIP NAME:  011/15 TK1 1X
255  A056C023 V     C        12:53:56:04 12:53:59:14 00:18:47:15 00:18:51:00 
* FROM CLIP NAME:  011/15 TK2 1X
256  A056C024 V     C        13:00:06:14 13:00:09:14 00:18:51:00 00:18:54:00 
* FROM CLIP NAME:  011/15 TK3 1X
257  A056C023 V     C        12:54:01:18 12:54:05:01 00:18:54:00 00:18:57:08 
* FROM CLIP NAME:  011/15 TK2 1X
258  A056C024 V     C        13:00:12:09 13:00:17:08 00:18:57:08 00:19:02:07 
* FROM CLIP NAME:  011/15 TK3 1X
259  A056C023 V     C        12:54:10:07 12:54:20:23 00:19:02:07 00:19:12:23 
* FROM CLIP NAME:  011/15 TK2 1X
260  A056C024 V     C        13:00:28:12 13:00:33:00 00:19:12:23 00:19:17:11 
* FROM CLIP NAME:  011/15 TK3 1X
261  20230917 V     C        00:00:36:17 00:00:38:13 00:19:17:11 00:19:19:06 
M2   20230917       024.0                00:00:36:17 
* FROM CLIP NAME:  SS_DRONE_PRAIA
262  A018C635 V     C        11:28:04:18 11:28:06:17 00:19:19:06 00:19:21:06 
* FROM CLIP NAME:  CACAU_SS_ITACARE_BRASIL_POR_DO_SOL 
* TO CLIP NAME:  SS_DRONE_PRAIA
263  A018C635 V     C        11:28:06:18 11:28:07:15 00:19:21:06 00:19:22:04 
* FROM CLIP NAME:  CACAU_SS_ITACARE_BRASIL_POR_DO_SOL
264  A008C545 V     C        12:18:25:21 12:18:27:21 00:19:22:04 00:19:24:04 
* FROM CLIP NAME:  SS_ITACARE_NOITE 
* TO CLIP NAME:  CACAU_SS_ITACARE_BRASIL_POR_DO_SOL
265  A008C545 V     C        12:18:27:21 12:18:30:10 00:19:24:04 00:19:26:18 
* FROM CLIP NAME:  SS_ITACARE_NOITE
266  A012C234 V     C        06:24:13:03 06:24:15:17 00:19:26:18 00:19:29:07 
* FROM CLIP NAME:  SS_FAZENDA_NOITE
267  C047C001 V     C        09:35:44:12 09:35:54:09 00:19:29:07 00:19:39:04 
* FROM CLIP NAME:  011/16 TK1 1X
268  B052C001 V     C        09:35:54:09 09:35:55:13 00:19:39:04 00:19:40:08 
* FROM CLIP NAME:  011/16 TK1 1X
269  F009C001 V     C        09:35:55:13 09:36:04:01 00:19:40:08 00:19:48:21 
* FROM CLIP NAME:  011/16 TK1 1X
270  B052C001 V     C        09:36:04:14 09:36:07:07 00:19:48:21 00:19:51:14 
* FROM CLIP NAME:  011/16 TK1 1X
271  F009C001 V     C        09:36:07:07 09:36:13:07 00:19:51:14 00:19:57:14 
* FROM CLIP NAME:  011/16 TK1 1X
272  B052C001 V     C        09:36:13:07 09:36:15:24 00:19:57:14 00:20:00:06 
* FROM CLIP NAME:  011/16 TK1 1X
273  F009C001 V     C        09:36:15:24 09:36:19:00 00:20:00:06 00:20:03:07 
* FROM CLIP NAME:  011/16 TK1 1X
274  B052C001 V     C        09:36:19:01 09:36:21:05 00:20:03:07 00:20:05:11 
* FROM CLIP NAME:  011/16 TK1 1X
275  F009C002 V     C        09:40:11:13 09:40:17:09 00:20:05:11 00:20:11:07 
* FROM CLIP NAME:  011/16 TK1 2X
276  B052C002 V     C        09:40:17:09 09:40:20:21 00:20:11:07 00:20:14:19 
* FROM CLIP NAME:  011/16 TK1 2X
277  F009C002 V     C        09:40:20:21 09:40:25:03 00:20:14:19 00:20:19:01 
* FROM CLIP NAME:  011/16 TK1 2X
278  B052C002 V     C        09:40:25:03 09:40:30:08 00:20:19:01 00:20:24:06 
* FROM CLIP NAME:  011/16 TK1 2X
279  B052C004 V     C        10:22:13:07 10:22:18:08 00:20:24:06 00:20:29:07 
* FROM CLIP NAME:  011/17 TK1 1X
280  C047C004 V     C        10:22:18:08 10:22:23:19 00:20:29:07 00:20:34:18 
* FROM CLIP NAME:  011/17 TK1 1X
281  F009C004 V     C        10:22:24:10 10:22:26:04 00:20:34:18 00:20:36:12 
* FROM CLIP NAME:  011/17 TK1 1X
282  B052C006 V     C        10:33:51:23 10:33:54:06 00:20:36:12 00:20:38:20 
* FROM CLIP NAME:  011/17 TK2 1X
283  F009C006 V     C        10:33:54:09 10:33:56:15 00:20:38:20 00:20:41:01 
* FROM CLIP NAME:  011/17 TK2 1X
284  B052C006 V     C        10:33:56:15 10:33:59:02 00:20:41:01 00:20:43:13 
* FROM CLIP NAME:  011/17 TK2 1X
285  F009C006 V     C        10:33:59:02 10:34:03:14 00:20:43:13 00:20:48:00 
* FROM CLIP NAME:  011/17 TK2 1X
286  B052C006 V     C        10:35:00:03 10:35:04:22 00:20:48:00 00:20:52:19 
* FROM CLIP NAME:  011/17 TK2 1X
287  C047C006 V     C        10:35:04:22 10:35:09:03 00:20:52:19 00:20:57:00 
* FROM CLIP NAME:  011/17 TK2 1X
288  B052C006 V     C        10:35:09:03 10:35:13:02 00:20:57:00 00:21:00:24 
* FROM CLIP NAME:  011/17 TK2 1X
289  F009C006 V     C        10:35:13:02 10:35:15:14 00:21:00:24 00:21:03:11 
* FROM CLIP NAME:  011/17 TK2 1X
290  B052C006 V     C        10:35:15:14 10:35:26:17 00:21:03:11 00:21:14:14 
* FROM CLIP NAME:  011/17 TK2 1X
291  F009C006 V     C        10:35:26:17 10:35:30:10 00:21:14:14 00:21:18:07 
* FROM CLIP NAME:  011/17 TK2 1X
292  B052C005 V     C        10:26:33:04 10:26:33:13 00:21:18:07 00:21:18:16 
* FROM CLIP NAME:  011/17 TK1 1X CUE
293  B052C005 V     C        10:26:33:13 10:26:36:09 00:21:18:16 00:21:21:12 
* FROM CLIP NAME:  011/17 TK1 1X CUE
294  F009C005 V     C        10:26:36:09 10:26:38:11 00:21:21:12 00:21:23:14 
* FROM CLIP NAME:  011/17 TK1 1X CUE
295  C047C008 V     C        10:54:25:22 10:54:30:06 00:21:23:14 00:21:27:23 
* FROM CLIP NAME:  011/31 TK3 1X
296  B052C008 V     C        10:54:30:06 10:54:32:03 00:21:27:23 00:21:29:20 
* FROM CLIP NAME:  011/31 TK3 1X
297  F009C006 V     C        10:35:43:12 10:35:45:18 00:21:29:20 00:21:32:01 
* FROM CLIP NAME:  011/17 TK2 1X
298  F009C006 V     C        10:35:45:18 10:35:46:04 00:21:32:01 00:21:32:12 
* FROM CLIP NAME:  011/17 TK2 1X
299  B003C014 V     C        12:58:36:22 12:58:37:07 00:21:32:12 00:21:32:22 
* FROM CLIP NAME:  010/31_11/02_07 TK2 1X
300  B003C014 V     C        12:58:37:07 12:58:44:15 00:21:32:22 00:21:40:05 
* FROM CLIP NAME:  010/31_11/02_07 TK2 1X
301  B003C014 V     C        12:58:44:15 12:58:45:01 00:21:40:05 00:21:40:16 
* FROM CLIP NAME:  010/31_11/02_07 TK2 1X
302  F009C006 V     C        10:35:47:22 10:35:48:07 00:21:40:16 00:21:41:01 
* FROM CLIP NAME:  011/17 TK2 1X
303  F009C006 V     C        10:35:48:07 10:35:50:19 00:21:41:01 00:21:43:13 
* FROM CLIP NAME:  011/17 TK2 1X
304  B052C008 V     C        10:54:40:01 10:54:43:02 00:21:43:13 00:21:46:14 
* FROM CLIP NAME:  011/31 TK3 1X
305  C047C008 V     C        10:54:43:02 10:54:48:04 00:21:46:14 00:21:51:16 
* FROM CLIP NAME:  011/31 TK3 1X
306  B052C005 V     C        10:27:01:07 10:27:05:03 00:21:51:16 00:21:55:12 
* FROM CLIP NAME:  011/17 TK1 1X CUE
307  C064C011 V     C        18:20:46:07 18:21:00:17 00:21:55:12 00:22:09:22 
* FROM CLIP NAME:  011/18 TK1 2X
308  E009R021 V     C        17:24:08:23 17:24:20:16 00:22:09:22 00:22:21:15 
* FROM CLIP NAME:  011/18A TK1 1X 
* LOC: 00:22:10:07 WHITE   CÔR - NOITE? 
* LOC: 00:22:15:18 YELLOW  MOTION - LUA
309  E009R022 V     C        17:36:40:22 17:36:47:04 00:22:21:15 00:22:27:22 
* FROM CLIP NAME:  011/18A TK2 1X
310  D010L025 V     C        17:36:51:04 17:36:55:19 00:22:27:22 00:22:32:12 
* FROM CLIP NAME:  011/18A TK2 1X
311  E009R022 V     C        17:36:55:19 17:36:59:06 00:22:32:12 00:22:35:24 
* FROM CLIP NAME:  011/18A TK2 1X
312  D010L025 V     C        17:36:59:06 17:37:03:04 00:22:35:24 00:22:39:22 
* FROM CLIP NAME:  011/18A TK2 1X
313  E009R022 V     C        17:37:03:11 17:37:05:08 00:22:39:22 00:22:41:19 
* FROM CLIP NAME:  011/18A TK2 1X
314  D010L025 V     C        17:37:05:08 17:37:09:19 00:22:41:19 00:22:46:05 
* FROM CLIP NAME:  011/18A TK2 1X
315  E009R022 V     C        17:37:09:19 17:37:13:02 00:22:46:05 00:22:49:13 
* FROM CLIP NAME:  011/18A TK2 1X
316  D010L025 V     C        17:37:13:02 17:37:15:03 00:22:49:13 00:22:51:14 
* FROM CLIP NAME:  011/18A TK2 1X
317  E009R022 V     C        17:37:15:03 17:37:16:18 00:22:51:14 00:22:53:04 
* FROM CLIP NAME:  011/18A TK2 1X
318  D010L025 V     C        17:37:16:18 17:37:19:24 00:22:53:04 00:22:56:10 
* FROM CLIP NAME:  011/18A TK2 1X
319  E009R022 V     C        17:37:19:24 17:37:27:14 00:22:56:10 00:23:04:00 
* FROM CLIP NAME:  011/18A TK2 1X
320  D010L025 V     C        17:37:27:14 17:37:29:01 00:23:04:00 00:23:05:12 
* FROM CLIP NAME:  011/18A TK2 1X
321  E009R022 V     C        17:37:29:01 17:37:31:14 00:23:05:12 00:23:08:00 
* FROM CLIP NAME:  011/18A TK2 1X
322  D010L025 V     C        17:37:39:23 17:37:42:15 00:23:08:00 00:23:10:17 
* FROM CLIP NAME:  011/18A TK2 1X
323  E009R022 V     C        17:37:43:05 17:37:53:14 00:23:10:17 00:23:21:01 
* FROM CLIP NAME:  011/18A TK2 1X
324  D010L025 V     C        17:38:01:23 17:38:06:23 00:23:21:01 00:23:26:01 
* FROM CLIP NAME:  011/18A TK2 1X
325  E009R024 V     C        17:45:21:16 17:45:24:02 00:23:26:01 00:23:28:12 
* FROM CLIP NAME:  011/18A TK3 1X
326  D010L026 V     C        17:45:24:02 17:45:28:07 00:23:28:12 00:23:32:17 
* FROM CLIP NAME:  011/18A TK3 1X
327  E009R024 V     C        17:45:28:07 17:45:30:19 00:23:32:17 00:23:35:04 
* FROM CLIP NAME:  011/18A TK3 1X
328  D010L026 V     C        17:45:30:19 17:45:36:15 00:23:35:04 00:23:41:00 
* FROM CLIP NAME:  011/18A TK3 1X
329  E009R024 V     C        17:45:36:15 17:45:40:09 00:23:41:00 00:23:44:19 
* FROM CLIP NAME:  011/18A TK3 1X
330  D010L026 V     C        17:45:40:09 17:45:47:04 00:23:44:19 00:23:51:14 
* FROM CLIP NAME:  011/18A TK3 1X
331  E009R024 V     C        17:45:47:04 17:45:49:18 00:23:51:14 00:23:54:03 
* FROM CLIP NAME:  011/18A TK3 1X
332  D010L026 V     C        17:45:51:06 17:45:54:18 00:23:54:03 00:23:57:15 
* FROM CLIP NAME:  011/18A TK3 1X
333  E009R024 V     C        17:45:54:18 17:45:56:21 00:23:57:15 00:23:59:18 
* FROM CLIP NAME:  011/18A TK3 1X
334  D010L026 V     C        17:45:57:11 17:46:04:02 00:23:59:18 00:24:06:09 
* FROM CLIP NAME:  011/18A TK3 1X
335  E009R024 V     C        17:46:06:12 17:46:16:02 00:24:06:09 00:24:15:24 
* FROM CLIP NAME:  011/18A TK3 1X
336  D010L026 V     C        17:46:16:02 17:46:17:17 00:24:15:24 00:24:17:14 
* FROM CLIP NAME:  011/18A TK3 1X
337  E009R024 V     C        17:46:21:15 17:46:24:17 00:24:17:14 00:24:20:16 
* FROM CLIP NAME:  011/18A TK3 1X
338  D010L026 V     C        17:46:24:17 17:46:28:23 00:24:20:16 00:24:24:22 
* FROM CLIP NAME:  011/18A TK3 1X
339  E009R024 V     C        17:46:28:23 17:46:31:09 00:24:24:22 00:24:27:08 
* FROM CLIP NAME:  011/18A TK3 1X
340  D010L026 V     C        17:46:31:09 17:46:33:09 00:24:27:08 00:24:29:08 
* FROM CLIP NAME:  011/18A TK3 1X
341  E009R024 V     C        17:46:33:09 17:46:35:14 00:24:29:08 00:24:31:13 
* FROM CLIP NAME:  011/18A TK3 1X
342  D010L026 V     C        17:46:35:14 17:46:38:02 00:24:31:13 00:24:34:01 
* FROM CLIP NAME:  011/18A TK3 1X
343  E009R024 V     C        17:46:41:14 17:46:43:24 00:24:34:01 00:24:36:11 
* FROM CLIP NAME:  011/18A TK3 1X
344  D010L026 V     C        17:46:43:24 17:46:48:00 00:24:36:11 00:24:40:12 
* FROM CLIP NAME:  011/18A TK3 1X
345  E009R024 V     C        17:46:48:00 17:46:56:20 00:24:40:12 00:24:49:07 
* FROM CLIP NAME:  011/18A TK3 1X
346  D010L026 V     C        17:46:56:20 17:47:00:02 00:24:49:07 00:24:52:14 
* FROM CLIP NAME:  011/18A TK3 1X
347  E009R024 V     C        17:47:00:02 17:47:02:12 00:24:52:14 00:24:54:24 
* FROM CLIP NAME:  011/18A TK3 1X
348  D010L026 V     C        17:47:02:12 17:47:04:14 00:24:54:24 00:24:57:01 
* FROM CLIP NAME:  011/18A TK3 1X
349  E009R024 V     C        17:47:04:14 17:47:06:10 00:24:57:01 00:24:58:22 
* FROM CLIP NAME:  011/18A TK3 1X
350  E009R021 V     C        17:26:54:22 17:27:00:07 00:24:58:22 00:25:04:07 
* FROM CLIP NAME:  011/18A TK1 1X 
* LOC: 00:24:59:07 WHITE   CÔR - NOITE 
* LOC: 00:25:01:12 YELLOW  MOTION - LUA
351  D010L027 V     C        17:50:03:23 17:50:06:11 00:25:04:07 00:25:06:20 
* FROM CLIP NAME:  011/18A TK4 1X
352  D010L028 V     C        17:52:17:15 17:52:20:18 00:25:06:20 00:25:09:23 
* FROM CLIP NAME:  011/18A TK5 1X
353  D010L028 V     C        17:51:41:17 17:51:45:10 00:25:09:23 00:25:13:16 
* FROM CLIP NAME:  011/18A TK5 1X
354  D010L028 V     C        17:53:07:20 17:53:12:00 00:25:13:16 00:25:17:21 
* FROM CLIP NAME:  011/18A TK5 1X
355  D010L028 V     C        17:51:50:00 17:51:53:19 00:25:17:21 00:25:21:15 
* FROM CLIP NAME:  011/18A TK5 1X
356  E009R021 V     C        17:27:02:23 17:27:06:19 00:25:21:15 00:25:25:11 
* FROM CLIP NAME:  011/18A TK1 1X 
* LOC: 00:25:22:00 WHITE   CÔR - NOITE? 
* LOC: 00:25:23:21 YELLOW  MOTION - LUA
357  C006C000 V     C        00:03:20:06 00:03:22:09 00:25:25:11 00:25:27:14 
* FROM CLIP NAME:  CACAU_SS_DRONE_CABO_DA_ROCA
358  C006C000 V     C        00:00:13:09 00:00:15:08 00:25:27:14 00:25:29:13 
* FROM CLIP NAME:  CACAU_SS_DRONE_CABO_DA_ROCA
359  DJI_0240 V     C        00:00:08:18 00:00:10:14 00:25:29:13 00:25:31:09 
* FROM CLIP NAME:  CACAU_SS_DRONE_SINTRA
360  DJI_0236 V     C        00:00:05:04 00:00:07:06 00:25:31:09 00:25:33:11 
* FROM CLIP NAME:  CACAU_SS_DRONE_SINTRA
361  20230926 V     C        00:00:14:04 00:00:16:17 00:25:33:11 00:25:35:24 
* FROM CLIP NAME:  CACAU_SS_CASA_JUSTINO_DIA
362  20230804 V     C        13:01:47:06 13:01:50:12 00:25:35:24 00:25:39:05 
* FROM CLIP NAME:  011/19 TK2 1X
363  20230804 V     C        12:56:50:15 12:56:52:24 00:25:39:05 00:25:41:14 
* FROM CLIP NAME:  011/19 CLAQ TK1 1X
364  20230804 V     C        12:56:52:24 12:56:57:00 00:25:41:14 00:25:45:15 
* FROM CLIP NAME:  011/19 CLAQ TK1 1X
365  20230804 V     C        12:56:57:00 12:56:58:12 00:25:45:15 00:25:47:02 
* FROM CLIP NAME:  011/19 CLAQ TK1 1X
366  20230804 V     C        12:56:58:12 12:57:00:06 00:25:47:02 00:25:48:21 
* FROM CLIP NAME:  011/19 CLAQ TK1 1X
367  20230804 V     C        12:57:00:06 12:57:07:23 00:25:48:21 00:25:56:13 
* FROM CLIP NAME:  011/19 CLAQ TK1 1X
368  20230804 V     C        12:57:07:23 12:57:09:06 00:25:56:13 00:25:57:21 
* FROM CLIP NAME:  011/19 CLAQ TK1 1X
369  20230804 V     C        12:57:09:06 12:57:11:17 00:25:57:21 00:26:00:07 
* FROM CLIP NAME:  011/19 CLAQ TK1 1X
370  20230804 V     C        12:57:11:17 12:57:15:23 00:26:00:07 00:26:04:13 
* FROM CLIP NAME:  011/19 CLAQ TK1 1X
371  20230804 V     C        12:57:15:23 12:57:18:13 00:26:04:13 00:26:07:03 
* FROM CLIP NAME:  011/19 CLAQ TK1 1X
372  20230804 V     C        13:02:15:19 13:02:23:14 00:26:07:03 00:26:14:23 
* FROM CLIP NAME:  011/19 TK2 1X
373  20230804 V     C        13:02:23:14 13:02:24:23 00:26:14:23 00:26:16:07 
* FROM CLIP NAME:  011/19 TK2 1X
374  20230804 V     C        13:02:24:23 13:02:28:15 00:26:16:07 00:26:19:24 
* FROM CLIP NAME:  011/19 TK2 1X
375  20230804 V     C        13:02:28:15 13:02:34:17 00:26:19:24 00:26:26:01 
* FROM CLIP NAME:  011/19 TK2 1X
376  20230804 V     C        13:02:34:17 13:02:41:11 00:26:26:01 00:26:32:20 
* FROM CLIP NAME:  011/19 TK2 1X
377  20230804 V     C        13:02:41:11 13:02:45:01 00:26:32:20 00:26:36:10 
* FROM CLIP NAME:  011/19 TK2 1X
378  20230804 V     C        12:57:48:21 12:57:52:10 00:26:36:10 00:26:39:24 
* FROM CLIP NAME:  011/19 CLAQ TK1 1X
379  20230804 V     C        12:57:52:10 12:57:55:03 00:26:39:24 00:26:42:17 
* FROM CLIP NAME:  011/19 CLAQ TK1 1X
380  20230804 V     C        12:57:55:03 12:57:57:16 00:26:42:17 00:26:45:05 
* FROM CLIP NAME:  011/19 CLAQ TK1 1X
381  20230804 V     C        12:57:57:16 12:58:00:02 00:26:45:05 00:26:47:16 
* FROM CLIP NAME:  011/19 CLAQ TK1 1X
382  20230804 V     C        12:58:00:02 12:58:06:22 00:26:47:16 00:26:54:11 
* FROM CLIP NAME:  011/19 CLAQ TK1 1X
383  20230804 V     C        12:58:06:22 12:58:12:02 00:26:54:11 00:26:59:16 
* FROM CLIP NAME:  011/19 CLAQ TK1 1X
384  20230804 V     C        12:58:12:02 12:58:15:13 00:26:59:16 00:27:03:02 
* FROM CLIP NAME:  011/19 CLAQ TK1 1X
385  20230804 V     C        12:58:15:13 12:58:18:04 00:27:03:02 00:27:05:18 
* FROM CLIP NAME:  011/19 CLAQ TK1 1X
386  20230804 V     C        12:58:18:04 12:58:22:21 00:27:05:18 00:27:10:10 
* FROM CLIP NAME:  011/19 CLAQ TK1 1X
387  20230804 V     C        12:58:22:21 12:58:29:13 00:27:10:10 00:27:17:02 
* FROM CLIP NAME:  011/19 CLAQ TK1 1X
388  20230804 V     C        12:58:29:13 12:58:32:24 00:27:17:02 00:27:20:13 
* FROM CLIP NAME:  011/19 CLAQ TK1 1X
389  20230804 V     C        12:58:32:24 12:58:35:19 00:27:20:13 00:27:23:08 
* FROM CLIP NAME:  011/19 CLAQ TK1 1X
390  20230804 V     C        13:03:23:14 13:03:25:10 00:27:23:08 00:27:25:04 
* FROM CLIP NAME:  011/19 TK2 1X
391  20230804 V     C        13:03:25:10 13:03:28:06 00:27:25:04 00:27:28:00 
* FROM CLIP NAME:  011/19 TK2 1X
392  20230804 V     C        13:03:28:06 13:03:33:22 00:27:28:00 00:27:33:16 
* FROM CLIP NAME:  011/19 TK2 1X
393  20230804 V     C        13:03:33:22 13:03:41:17 00:27:33:16 00:27:41:11 
* FROM CLIP NAME:  011/19 TK2 1X
394  20230804 V     C        13:03:41:17 13:03:49:23 00:27:41:11 00:27:49:17 
* FROM CLIP NAME:  011/19 TK2 1X
395  20230804 V     C        13:03:49:23 13:03:52:14 00:27:49:17 00:27:52:08 
* FROM CLIP NAME:  011/19 TK2 1X
396  20230804 V     C        13:03:52:14 13:03:57:14 00:27:52:08 00:27:57:08 
* FROM CLIP NAME:  011/19 TK2 1X
397  20230804 V     C        13:03:57:14 13:04:00:08 00:27:57:08 00:28:00:02 
* FROM CLIP NAME:  011/19 TK2 1X
398  20230804 V     C        13:04:00:08 13:04:01:23 00:28:00:02 00:28:01:17 
* FROM CLIP NAME:  011/19 TK2 1X
399  20230804 V     C        13:04:01:23 13:04:03:20 00:28:01:17 00:28:03:14 
* FROM CLIP NAME:  011/19 TK2 1X
400  20230804 V     C        13:04:03:20 13:04:06:21 00:28:03:14 00:28:06:15 
* FROM CLIP NAME:  011/19 TK2 1X
401  20230804 V     C        13:04:06:21 13:04:10:03 00:28:06:15 00:28:09:22 
* FROM CLIP NAME:  011/19 TK2 1X
402  20230804 V     C        13:04:10:03 13:04:12:12 00:28:09:22 00:28:12:06 
* FROM CLIP NAME:  011/19 TK2 1X
403  20230811 V     C        13:31:37:21 13:31:42:14 00:28:12:06 00:28:16:24 
* FROM CLIP NAME:  011/20+011/24 TK1 2X BOA
404  20230811 V     C        13:31:42:14 13:32:01:10 00:28:16:24 00:28:35:20 
* FROM CLIP NAME:  011/20+011/24 TK1 2X BOA
405  20230811 V     C        13:32:25:00 13:32:29:23 00:28:35:20 00:28:40:18 
* FROM CLIP NAME:  011/20+011/24 TK1 2X BOA
406  20230811 V     C        13:32:29:23 13:32:34:12 00:28:40:18 00:28:45:07 
* FROM CLIP NAME:  011/20+011/24 TK1 2X BOA
407  20230811 V     C        13:32:35:20 13:32:37:03 00:28:45:07 00:28:46:15 
* FROM CLIP NAME:  011/20+011/24 TK1 2X BOA
408  20230811 V     C        13:32:37:09 13:32:41:17 00:28:46:15 00:28:50:23 
* FROM CLIP NAME:  011/20+011/24 TK1 2X BOA
409  20230811 V     C        13:32:42:11 13:32:46:14 00:28:50:23 00:28:55:01 
* FROM CLIP NAME:  011/20+011/24 TK1 2X BOA
410  20230811 V     C        13:38:40:03 13:38:46:07 00:28:55:01 00:29:01:05 
* FROM CLIP NAME:  011/20+011/24 TK3 1X
411  20230811 V     C        13:38:47:14 13:38:49:23 00:29:01:05 00:29:03:14 
* FROM CLIP NAME:  011/20+011/24 TK3 1X
412  DJI_2023 V     C        00:00:10:04 00:00:12:19 00:29:03:14 00:29:06:04 
* FROM CLIP NAME:  DRONE_SS_PRAIA
413  DJI_2023 V     C        00:00:29:15 00:00:31:22 00:29:06:04 00:29:08:11 
* FROM CLIP NAME:  DJI_20230920092525_0007_D.NEW.01
414  DJI_2023 V     C        00:00:10:22 00:00:13:10 00:29:08:11 00:29:10:24 
* FROM CLIP NAME:  DRONE_FAZENDA
415  C058C020 V     C        13:06:52:10 13:06:55:20 00:29:10:24 00:29:14:09 
* FROM CLIP NAME:  011/21 TK1 1X
416  B065C020 V     C        13:06:55:20 13:06:57:21 00:29:14:09 00:29:16:10 
* FROM CLIP NAME:  011/21 TK1 1X
417  A135C019 V     C        13:06:57:21 13:07:01:00 00:29:16:10 00:29:19:14 
* FROM CLIP NAME:  011/21 TK1 1X
418  B065C020 V     C        13:07:01:00 13:07:03:02 00:29:19:14 00:29:21:16 
* FROM CLIP NAME:  011/21 TK1 1X
419  A135C019 V     C        13:07:03:02 13:07:04:16 00:29:21:16 00:29:23:05 
* FROM CLIP NAME:  011/21 TK1 1X
420  B065C021 V     C        13:16:35:24 13:16:41:11 00:29:23:05 00:29:28:17 
* FROM CLIP NAME:  011/21 TK2 1X
421  C058C021 V     C        13:16:41:10 13:16:46:19 00:29:28:17 00:29:34:01 
* FROM CLIP NAME:  011/21 TK2 1X
422  A135C020 V     C        13:16:46:19 13:16:48:22 00:29:34:01 00:29:36:04 
* FROM CLIP NAME:  011/21 TK2 1X
423  B065C021 V     C        13:17:06:04 13:17:13:22 00:29:36:04 00:29:43:22 
* FROM CLIP NAME:  011/21 TK2 1X
424  A135C020 V     C        13:18:35:18 13:18:43:14 00:29:43:22 00:29:51:18 
* FROM CLIP NAME:  011/21 TK2 1X
425  C058C021 V     C        13:18:43:14 13:18:48:23 00:29:51:18 00:29:57:02 
* FROM CLIP NAME:  011/21 TK2 1X
426  B065C021 V     C        13:18:48:23 13:18:51:10 00:29:57:02 00:29:59:14 
* FROM CLIP NAME:  011/21 TK2 1X
427  A135C019 V     C        13:07:39:01 13:07:41:02 00:29:59:14 00:30:01:15 
* FROM CLIP NAME:  011/21 TK1 1X
428  B065C021 V     C        13:18:55:13 13:18:57:12 00:30:01:15 00:30:03:14 
* FROM CLIP NAME:  011/21 TK2 1X
429  A135C020 V     C        13:18:57:12 13:19:02:16 00:30:03:14 00:30:08:18 
* FROM CLIP NAME:  011/21 TK2 1X
430  C058C021 V     C        13:19:02:16 13:19:05:06 00:30:08:18 00:30:11:08 
* FROM CLIP NAME:  011/21 TK2 1X
431  A135C020 V     C        13:19:05:06 13:19:07:04 00:30:11:08 00:30:13:06 
* FROM CLIP NAME:  011/21 TK2 1X
432  B065C021 V     C        13:19:07:04 13:19:10:02 00:30:13:06 00:30:16:04 
* FROM CLIP NAME:  011/21 TK2 1X
433  A135C020 V     C        13:19:10:03 13:19:18:24 00:30:16:04 00:30:25:00 
* FROM CLIP NAME:  011/21 TK2 1X
434  B065C021 V     C        13:19:18:24 13:19:21:15 00:30:25:00 00:30:27:16 
* FROM CLIP NAME:  011/21 TK2 1X
435  A135C020 V     C        13:19:21:15 13:19:24:03 00:30:27:16 00:30:30:04 
* FROM CLIP NAME:  011/21 TK2 1X
436  C058C021 V     C        13:19:24:03 13:19:25:24 00:30:30:04 00:30:32:00 
* FROM CLIP NAME:  011/21 TK2 1X
437  B065C020 V     C        13:08:13:17 13:08:15:22 00:30:32:00 00:30:34:05 
* FROM CLIP NAME:  011/21 TK1 1X
438  A135C020 V     C        13:19:28:05 13:19:29:06 00:30:34:05 00:30:35:06 
* FROM CLIP NAME:  011/21 TK2 1X
439  B065C021 V     C        13:21:30:01 13:21:34:22 00:30:35:06 00:30:40:02 
* FROM CLIP NAME:  011/21 TK2 1X
440  A135C019 V     C        13:08:22:10 13:08:26:11 00:30:40:02 00:30:44:03 
* FROM CLIP NAME:  011/21 TK1 1X
441  B065C021 V     C        13:21:41:14 13:21:47:04 00:30:44:03 00:30:49:18 
* FROM CLIP NAME:  011/21 TK2 1X
442  A135C020 V     C        13:21:47:04 13:21:49:02 00:30:49:18 00:30:51:16 
* FROM CLIP NAME:  011/21 TK2 1X
443  B065C020 V     C        13:08:32:16 13:08:36:07 00:30:51:16 00:30:55:07 
* FROM CLIP NAME:  011/21 TK1 1X
444  A135C020 V     C        13:21:53:05 13:21:57:00 00:30:55:07 00:30:59:02 
* FROM CLIP NAME:  011/21 TK2 1X
445  B065C021 V     C        13:21:57:00 13:21:58:18 00:30:59:02 00:31:00:20 
* FROM CLIP NAME:  011/21 TK2 1X
446  A135C020 V     C        13:21:58:18 13:22:06:02 00:31:00:20 00:31:08:04 
* FROM CLIP NAME:  011/21 TK2 1X
447  B065C021 V     C        13:23:09:10 13:23:10:19 00:31:08:04 00:31:09:13 
* FROM CLIP NAME:  011/21 TK2 1X
448  B065C021 V     C        13:22:06:00 13:22:07:08 00:31:09:13 00:31:10:21 
* FROM CLIP NAME:  011/21 TK2 1X
449  C058C021 V     C        13:23:10:19 13:23:12:15 00:31:10:21 00:31:12:17 
* FROM CLIP NAME:  011/21 TK2 1X
450  B067C016 V     C        15:50:20:05 15:50:41:21 00:31:12:17 00:31:34:08 
* FROM CLIP NAME:  011/22 TK1 1X
451  A137C015 V     C        15:50:42:05 15:50:57:06 00:31:34:08 00:31:49:09 
* FROM CLIP NAME:  011/22 TK1 1X
452  B009C005 V     C        10:23:28:18 10:23:33:08 00:31:49:09 00:31:53:24 
* FROM CLIP NAME:  011/23 TK1 1X
453  C028C004 V     C        10:23:33:08 10:23:36:05 00:31:53:24 00:31:56:21 
* FROM CLIP NAME:  011/23 TK1 1X
454  A086C004 V     C        10:23:36:05 10:23:39:22 00:31:56:21 00:32:00:13 
* FROM CLIP NAME:  011/23 TK1 1X
455  B009C005 V     C        10:24:38:09 10:24:43:01 00:32:00:13 00:32:05:05 
* FROM CLIP NAME:  011/23 TK1 1X
456  A086C004 V     C        10:24:43:01 10:24:48:11 00:32:05:05 00:32:10:15 
* FROM CLIP NAME:  011/23 TK1 1X
457  B009C005 V     C        10:24:48:11 10:24:50:01 00:32:10:15 00:32:12:05 
* FROM CLIP NAME:  011/23 TK1 1X
458  A086C004 V     C        10:24:50:01 10:24:51:17 00:32:12:05 00:32:13:21 
* FROM CLIP NAME:  011/23 TK1 1X
459  B009C005 V     C        10:24:51:17 10:24:53:17 00:32:13:21 00:32:15:21 
* FROM CLIP NAME:  011/23 TK1 1X
460  A086C004 V     C        10:24:53:17 10:24:55:02 00:32:15:21 00:32:17:06 
* FROM CLIP NAME:  011/23 TK1 1X
461  B009C005 V     C        10:24:55:02 10:24:57:12 00:32:17:06 00:32:19:16 
* FROM CLIP NAME:  011/23 TK1 1X
462  A086C004 V     C        10:24:57:12 10:24:59:07 00:32:19:16 00:32:21:11 
* FROM CLIP NAME:  011/23 TK1 1X
463  B009C005 V     C        10:24:59:07 10:25:01:23 00:32:21:11 00:32:24:02 
* FROM CLIP NAME:  011/23 TK1 1X
464  C028C005 V     C        10:27:48:09 10:27:51:17 00:32:24:02 00:32:27:10 
* FROM CLIP NAME:  011/23 TK2 1X
465  A086C006 V     C        10:31:22:07 10:31:25:01 00:32:27:10 00:32:30:04 
* FROM CLIP NAME:  011/23 TK3 1X
466  B009C006 V     C        10:27:54:11 10:27:57:03 00:32:30:04 00:32:32:21 
* FROM CLIP NAME:  011/23 TK2 1X
467  A086C005 V     C        10:27:57:03 10:27:59:12 00:32:32:21 00:32:35:05 
* FROM CLIP NAME:  011/23 TK2 1X
468  B009C006 V     C        10:27:59:12 10:28:02:15 00:32:35:05 00:32:38:08 
* FROM CLIP NAME:  011/23 TK2 1X
469  A086C005 V     C        10:28:02:15 10:28:07:22 00:32:38:08 00:32:43:15 
* FROM CLIP NAME:  011/23 TK2 1X
470  B009C006 V     C        10:28:07:22 10:28:10:11 00:32:43:15 00:32:46:04 
* FROM CLIP NAME:  011/23 TK2 1X
471  B009C006 V     C        10:28:10:11 10:28:12:20 00:32:46:04 00:32:48:13 
* FROM CLIP NAME:  011/23 TK2 1X
472  C028C005 V     C        10:28:13:04 10:28:16:09 00:32:48:13 00:32:51:18 
* FROM CLIP NAME:  011/23 TK2 1X 
* LOC: 00:32:50:03 BLUE    REZISE
473  A086C005 V     C        10:28:16:09 10:28:19:17 00:32:51:18 00:32:55:01 
* FROM CLIP NAME:  011/23 TK2 1X
474  B009C006 V     C        10:28:19:17 10:28:22:07 00:32:55:01 00:32:57:16 
* FROM CLIP NAME:  011/23 TK2 1X
475  C028C005 V     C        10:28:22:07 10:28:26:06 00:32:57:16 00:33:01:15 
* FROM CLIP NAME:  011/23 TK2 1X
476  A086C005 V     C        10:28:26:06 10:28:28:04 00:33:01:15 00:33:03:13 
* FROM CLIP NAME:  011/23 TK2 1X
477  B009C006 V     C        10:28:28:04 10:28:29:24 00:33:03:13 00:33:05:08 
* FROM CLIP NAME:  011/23 TK2 1X
478  20230811 V     C        13:38:54:05 13:38:58:10 00:33:05:08 00:33:09:13 
* FROM CLIP NAME:  011/20+011/24 TK3 1X
479  20230811 V     C        13:38:58:10 13:39:00:04 00:33:09:13 00:33:11:07 
* FROM CLIP NAME:  011/20+011/24 TK3 1X
480  20230811 V     C        13:39:00:04 13:39:01:14 00:33:11:07 00:33:12:17 
* FROM CLIP NAME:  011/20+011/24 TK3 1X
481  20230811 V     C        13:39:01:18 13:39:03:09 00:33:12:17 00:33:14:08 
* FROM CLIP NAME:  011/20+011/24 TK3 1X
482  20230811 V     C        13:39:03:09 13:39:05:03 00:33:14:08 00:33:16:02 
* FROM CLIP NAME:  011/20+011/24 TK3 1X
483  20230811 V     C        13:39:05:03 13:39:07:20 00:33:16:02 00:33:18:19 
* FROM CLIP NAME:  011/20+011/24 TK3 1X
484  20230811 V     C        13:39:08:14 13:39:09:22 00:33:18:19 00:33:20:02 
* FROM CLIP NAME:  011/20+011/24 TK3 1X
485  20230811 V     C        13:39:09:22 13:39:12:00 00:33:20:02 00:33:22:05 
* FROM CLIP NAME:  011/20+011/24 TK3 1X
486  20230811 V     C        13:39:12:00 13:39:14:07 00:33:22:05 00:33:24:12 
* FROM CLIP NAME:  011/20+011/24 TK3 1X
487  20230811 V     C        13:39:14:07 13:39:18:21 00:33:24:12 00:33:29:01 
* FROM CLIP NAME:  011/20+011/24 TK3 1X
488  20230811 V     C        13:39:18:21 13:39:22:13 00:33:29:01 00:33:32:18 
* FROM CLIP NAME:  011/20+011/24 TK3 1X
489  20230811 V     C        13:39:22:13 13:39:24:21 00:33:32:18 00:33:35:01 
* FROM CLIP NAME:  011/20+011/24 TK3 1X
490  20230811 V     C        13:39:24:21 13:39:26:13 00:33:35:01 00:33:36:18 
* FROM CLIP NAME:  011/20+011/24 TK3 1X
491  20230811 V     C        13:36:27:10 13:36:32:05 00:33:36:18 00:33:41:13 
* FROM CLIP NAME:  011/20+011/24 TK2 1X
492  20230811 V     C        13:40:28:24 13:40:31:09 00:33:41:13 00:33:43:23 
* FROM CLIP NAME:  011/20+011/24 TK4 1X
493  20230811 V     C        13:39:36:04 13:39:40:03 00:33:43:23 00:33:47:22 
* FROM CLIP NAME:  011/20+011/24 TK3 1X
494  B065C025 V     C        13:47:24:17 13:47:25:21 00:33:47:22 00:33:49:01 
* FROM CLIP NAME:  011/25 TK2 1X
495  A135C023 V     C        13:47:25:21 13:47:28:06 00:33:49:01 00:33:51:11 
* FROM CLIP NAME:  011/25 TK2 1X
496  B065C025 V     C        13:47:28:06 13:47:29:20 00:33:51:11 00:33:53:00 
* FROM CLIP NAME:  011/25 TK2 1X
497  A135C023 V     C        13:47:29:20 13:47:33:09 00:33:53:00 00:33:56:14 
* FROM CLIP NAME:  011/25 TK2 1X
498  B065C025 V     C        13:47:33:09 13:47:38:00 00:33:56:14 00:34:01:05 
* FROM CLIP NAME:  011/25 TK2 1X
499  A135C023 V     C        13:48:50:11 13:48:51:21 00:34:01:05 00:34:02:15 
* FROM CLIP NAME:  011/25 TK2 1X
500  C058C025 V     C        13:40:28:02 13:40:30:23 00:34:02:15 00:34:05:11 
* FROM CLIP NAME:  011/25 TK1 2X
501  A135C022 V     C        13:40:30:23 13:40:33:19 00:34:05:11 00:34:08:07 
* FROM CLIP NAME:  011/25 TK1 2X
502  B065C025 V     C        13:48:57:03 13:48:59:04 00:34:08:07 00:34:10:08 
* FROM CLIP NAME:  011/25 TK2 1X
503  A135C023 V     C        13:48:59:04 13:49:00:15 00:34:10:08 00:34:11:19 
* FROM CLIP NAME:  011/25 TK2 1X
504  B065C025 V     C        13:49:00:09 13:49:02:01 00:34:11:19 00:34:13:11 
* FROM CLIP NAME:  011/25 TK2 1X
505  A135C022 V     C        13:41:23:12 13:41:27:07 00:34:13:11 00:34:17:06 
* FROM CLIP NAME:  011/25 TK1 2X
506  B065C024 V     C        13:41:27:07 13:41:28:23 00:34:17:06 00:34:18:22 
* FROM CLIP NAME:  011/25 TK1 2X
507  A135C022 V     C        13:41:30:00 13:41:32:18 00:34:18:22 00:34:21:15 
* FROM CLIP NAME:  011/25 TK1 2X
508  B065C024 V     C        13:41:32:18 13:41:38:10 00:34:21:15 00:34:27:07 
* FROM CLIP NAME:  011/25 TK1 2X
509  C058C026 V     C        13:49:15:04 13:49:19:10 00:34:27:07 00:34:31:13 
* FROM CLIP NAME:  011/25 TK2 1X
510  B065C025 V     C        13:49:19:10 13:49:20:15 00:34:31:13 00:34:32:18 
* FROM CLIP NAME:  011/25 TK2 1X
511  A135C023 V     C        13:49:22:19 13:49:26:06 00:34:32:18 00:34:36:05 
* FROM CLIP NAME:  011/25 TK2 1X
512  B065C025 V     C        13:49:26:06 13:49:27:16 00:34:36:05 00:34:37:15 
* FROM CLIP NAME:  011/25 TK2 1X
513  A135C023 V     C        13:49:27:20 13:49:30:02 00:34:37:15 00:34:39:22 
* FROM CLIP NAME:  011/25 TK2 1X
514  B065C025 V     C        13:49:30:02 13:49:31:01 00:34:39:22 00:34:40:21 
* FROM CLIP NAME:  011/25 TK2 1X
515  C058C026 V     C        13:49:31:01 13:49:32:06 00:34:40:21 00:34:42:01 
* FROM CLIP NAME:  011/25 TK2 1X
516  B065C025 V     C        13:49:32:06 13:49:33:12 00:34:42:01 00:34:43:07 
* FROM CLIP NAME:  011/25 TK2 1X
517  A135C023 V     C        13:49:33:12 13:49:35:12 00:34:43:07 00:34:45:07 
* FROM CLIP NAME:  011/25 TK2 1X
518  B065C025 V     C        13:50:31:07 13:50:33:13 00:34:45:07 00:34:47:13 
* FROM CLIP NAME:  011/25 TK2 1X
519  A135C023 V     C        13:50:33:13 13:50:36:21 00:34:47:13 00:34:50:21 
* FROM CLIP NAME:  011/25 TK2 1X
520  B065C025 V     C        13:50:36:21 13:50:39:11 00:34:50:21 00:34:53:11 
* FROM CLIP NAME:  011/25 TK2 1X
521  A135C023 V     C        13:50:39:11 13:50:42:17 00:34:53:11 00:34:56:17 
* FROM CLIP NAME:  011/25 TK2 1X
522  B065C025 V     C        13:50:42:17 13:50:45:06 00:34:56:17 00:34:59:06 
* FROM CLIP NAME:  011/25 TK2 1X
523  A135C023 V     C        13:50:45:07 13:50:48:24 00:34:59:06 00:35:02:23 
* FROM CLIP NAME:  011/25 TK2 1X
524  C058C026 V     C        13:50:49:06 13:50:54:07 00:35:02:23 00:35:07:24 
* FROM CLIP NAME:  011/25 TK2 1X
525  B065C025 V     C        13:51:18:22 13:51:21:24 00:35:07:24 00:35:11:01 
* FROM CLIP NAME:  011/25 TK2 1X
526  C058C025 V     C        13:42:19:07 13:42:22:01 00:35:11:01 00:35:13:20 
* FROM CLIP NAME:  011/25 TK1 2X
527  A135C022 V     C        13:42:22:01 13:42:24:11 00:35:13:20 00:35:16:05 
* FROM CLIP NAME:  011/25 TK1 2X
528  B065C025 V     C        13:51:26:05 13:51:28:02 00:35:16:05 00:35:18:02 
* FROM CLIP NAME:  011/25 TK2 1X
529  A135C023 V     C        13:51:28:02 13:51:30:21 00:35:18:02 00:35:20:21 
* FROM CLIP NAME:  011/25 TK2 1X
530  B065C025 V     C        13:51:31:09 13:51:33:00 00:35:20:21 00:35:22:12 
* FROM CLIP NAME:  011/25 TK2 1X
531  A135C023 V     C        13:51:32:22 13:51:34:04 00:35:22:12 00:35:23:19 
* FROM CLIP NAME:  011/25 TK2 1X
532  C058C027 V     C        13:57:07:21 13:57:09:17 00:35:23:19 00:35:25:15 
* FROM CLIP NAME:  011/25 TK4 1X
533  A135C024 V     C        13:54:06:09 13:54:07:19 00:35:25:15 00:35:27:00 
* FROM CLIP NAME:  011/25 TK3 1X
534  B065C026 V     C        13:54:07:19 13:54:09:20 00:35:27:00 00:35:29:01 
* FROM CLIP NAME:  011/25 TK3 1X
535  A135C024 V     C        13:54:09:20 13:54:12:03 00:35:29:01 00:35:31:09 
* FROM CLIP NAME:  011/25 TK3 1X
536  C058C027 V     C        13:57:15:11 13:57:18:11 00:35:31:09 00:35:34:09 
* FROM CLIP NAME:  011/25 TK4 1X
537  A135C023 V     C        13:51:46:11 13:51:54:19 00:35:34:09 00:35:42:17 
* FROM CLIP NAME:  011/25 TK2 1X
538  B065C025 V     C        13:51:54:19 13:51:57:12 00:35:42:17 00:35:45:10 
* FROM CLIP NAME:  011/25 TK2 1X
539  A019C017 V     C        12:21:47:16 12:22:14:21 00:35:45:10 00:36:12:15 
* FROM CLIP NAME:  011/26 TK1 1X
540  B020C016 V     C        12:22:14:21 12:22:22:03 00:36:12:15 00:36:19:22 
* FROM CLIP NAME:  011/26 TK1 1X
541  A019C018 V     C        12:32:45:19 12:32:47:12 00:36:19:22 00:36:21:15 
* FROM CLIP NAME:  011/26 TK2 1X
542  B020C017 V     C        12:32:47:12 12:32:49:16 00:36:21:15 00:36:23:19 
* FROM CLIP NAME:  011/26 TK2 1X
543  A019C018 V     C        12:32:49:16 12:32:56:04 00:36:23:19 00:36:30:07 
* FROM CLIP NAME:  011/26 TK2 1X
544  B020C017 V     C        12:32:56:04 12:32:58:18 00:36:30:07 00:36:32:21 
* FROM CLIP NAME:  011/26 TK2 1X
545  A019C018 V     C        12:32:58:18 12:33:03:10 00:36:32:21 00:36:37:13 
* FROM CLIP NAME:  011/26 TK2 1X
546  B020C017 V     C        12:33:03:10 12:33:06:24 00:36:37:13 00:36:41:02 
* FROM CLIP NAME:  011/26 TK2 1X
547  A019C018 V     C        12:33:06:24 12:33:11:00 00:36:41:02 00:36:45:03 
* FROM CLIP NAME:  011/26 TK2 1X
548  B020C017 V     C        12:33:11:00 12:33:14:18 00:36:45:03 00:36:48:21 
* FROM CLIP NAME:  011/26 TK2 1X
549  A019C018 V     C        12:33:14:18 12:33:17:07 00:36:48:21 00:36:51:10 
* FROM CLIP NAME:  011/26 TK2 1X
550  B020C017 V     C        12:33:17:07 12:33:19:03 00:36:51:10 00:36:53:06 
* FROM CLIP NAME:  011/26 TK2 1X
551  A019C018 V     C        12:33:19:03 12:33:21:15 00:36:53:06 00:36:55:18 
* FROM CLIP NAME:  011/26 TK2 1X
552  B020C017 V     C        12:33:21:15 12:33:25:20 00:36:55:18 00:36:59:23 
* FROM CLIP NAME:  011/26 TK2 1X
553  A019C018 V     C        12:33:25:20 12:33:28:18 00:36:59:23 00:37:02:21 
* FROM CLIP NAME:  011/26 TK2 1X
554  B020C017 V     C        12:33:28:18 12:33:30:07 00:37:02:21 00:37:04:10 
* FROM CLIP NAME:  011/26 TK2 1X
555  A019C018 V     C        12:33:30:07 12:33:34:13 00:37:04:10 00:37:08:16 
* FROM CLIP NAME:  011/26 TK2 1X
556  B020C017 V     C        12:33:34:13 12:33:37:19 00:37:08:16 00:37:11:22 
* FROM CLIP NAME:  011/26 TK2 1X
557  B007C023 V     C        13:38:10:15 13:38:17:09 00:37:11:22 00:37:18:16 
* FROM CLIP NAME:  011/27_28 TK1 2X
558  B007C024 V     C        14:00:37:04 14:00:40:15 00:37:18:16 00:37:22:02 
* FROM CLIP NAME:  011/27_28 TK2 1X 
* LOC: 00:37:20:08 BLUE    ESTABILIZE
559  B007C023 V     C        13:38:21:00 13:38:23:24 00:37:22:02 00:37:25:01 
* FROM CLIP NAME:  011/27_28 TK1 2X
560  B007C024 V     C        14:00:43:21 14:00:45:16 00:37:25:01 00:37:26:21 
* FROM CLIP NAME:  011/27_28 TK2 1X
561  A006C005 V     C        14:00:45:15 14:00:47:02 00:37:26:21 00:37:28:08 
* FROM CLIP NAME:  011/27_28 TK2 1X
562  B007C024 V     C        14:00:47:03 14:00:50:09 00:37:28:08 00:37:31:14 
* FROM CLIP NAME:  011/27_28 TK2 1X
563  A006C005 V     C        14:00:50:08 14:00:53:17 00:37:31:14 00:37:34:23 
* FROM CLIP NAME:  011/27_28 TK2 1X
564  B007C024 V     C        14:00:53:22 14:00:56:15 00:37:34:23 00:37:37:16 
* FROM CLIP NAME:  011/27_28 TK2 1X
565  A006C005 V     C        14:00:56:14 14:00:58:13 00:37:37:16 00:37:39:15 
* FROM CLIP NAME:  011/27_28 TK2 1X
566  B007C025 V     C        14:11:42:20 14:11:45:17 00:37:39:15 00:37:42:12 
* FROM CLIP NAME:  011/27_28 TK3 1X
567  A006C007 V     C        14:11:45:12 14:11:47:13 00:37:42:12 00:37:44:13 
* FROM CLIP NAME:  011/27_28 TK3 1X
568  B007C025 V     C        14:11:47:14 14:11:51:17 00:37:44:13 00:37:48:16 
* FROM CLIP NAME:  011/27_28 TK3 1X
569  A006C007 V     C        14:11:51:18 14:11:53:05 00:37:48:16 00:37:50:03 
* FROM CLIP NAME:  011/27_28 TK3 1X
570  B007C023 V     C        13:40:03:22 13:40:05:17 00:37:50:03 00:37:51:23 
* FROM CLIP NAME:  011/27_28 TK1 2X
571  B007C025 V     C        14:11:53:17 14:11:56:23 00:37:51:23 00:37:55:04 
* FROM CLIP NAME:  011/27_28 TK3 1X
572  A006C007 V     C        14:11:56:23 14:11:58:01 00:37:55:04 00:37:56:07 
* FROM CLIP NAME:  011/27_28 TK3 1X
573  B007C025 V     C        14:11:58:01 14:12:00:08 00:37:56:07 00:37:58:14 
* FROM CLIP NAME:  011/27_28 TK3 1X
574  A006C008 V     C        14:15:48:15 14:15:52:05 00:37:58:14 00:38:02:04 
* FROM CLIP NAME:  011/27_28 TK3 1X CUE
575  B007C028 V     C        14:19:30:09 14:19:32:15 00:38:02:04 00:38:04:10 
* FROM CLIP NAME:  011/27_28 TK3 1X CUE2
576  A006C010 V     C        14:19:34:15 14:19:37:19 00:38:04:10 00:38:07:14 
* FROM CLIP NAME:  011/27_28 TK3 1X CUE2
577  B007C028 V     C        14:19:37:19 14:19:43:16 00:38:07:14 00:38:13:11 
* FROM CLIP NAME:  011/27_28 TK3 1X CUE2
578  A006C010 V     C        14:19:43:00 14:19:45:01 00:38:13:11 00:38:15:12 
* FROM CLIP NAME:  011/27_28 TK3 1X CUE2
579  B007C028 V     C        14:19:45:01 14:19:47:11 00:38:15:12 00:38:17:22 
* FROM CLIP NAME:  011/27_28 TK3 1X CUE2
580  A006C010 V     C        14:19:47:11 14:19:49:11 00:38:17:22 00:38:19:22 
* FROM CLIP NAME:  011/27_28 TK3 1X CUE2
581  B007C028 V     C        14:19:49:11 14:19:50:23 00:38:19:22 00:38:21:09 
* FROM CLIP NAME:  011/27_28 TK3 1X CUE2
582  A006C010 V     C        14:19:50:23 14:19:53:13 00:38:21:09 00:38:23:24 
* FROM CLIP NAME:  011/27_28 TK3 1X CUE2
583  B007C028 V     C        14:21:04:21 14:21:08:22 00:38:23:24 00:38:28:00 
* FROM CLIP NAME:  011/27_28 TK3 1X CUE2
584  A006C010 V     C        14:21:09:19 14:21:16:03 00:38:28:00 00:38:34:09 
* FROM CLIP NAME:  011/27_28 TK3 1X CUE2
585  B007C028 V     C        14:21:16:03 14:21:19:16 00:38:34:09 00:38:37:22 
* FROM CLIP NAME:  011/27_28 TK3 1X CUE2
586  B007C023 V     C        13:40:53:04 13:41:01:17 00:38:37:22 00:38:46:10 
* FROM CLIP NAME:  011/27_28 TK1 2X
587  B007C028 V     C        14:21:32:20 14:21:37:01 00:38:46:10 00:38:50:16 
* FROM CLIP NAME:  011/27_28 TK3 1X CUE2
588  A006C010 V     C        14:21:37:01 14:21:39:05 00:38:50:16 00:38:52:20 
* FROM CLIP NAME:  011/27_28 TK3 1X CUE2
589  B007C028 V     C        14:21:39:11 14:21:44:02 00:38:52:20 00:38:57:11 
* FROM CLIP NAME:  011/27_28 TK3 1X CUE2
590  A006C010 V     C        14:21:44:01 14:21:45:14 00:38:57:11 00:38:58:24 
* FROM CLIP NAME:  011/27_28 TK3 1X CUE2
591  A006C010 V     C        14:21:45:14 14:21:46:00 00:38:58:24 00:38:59:10 
* FROM CLIP NAME:  011/27_28 TK3 1X CUE2
592  A007C002 V     C        16:37:35:11 16:37:35:21 00:38:59:10 00:38:59:20 
* FROM CLIP NAME:  011/28A TK1 2X
593  A007C002 V     C        16:37:35:21 16:37:40:07 00:38:59:20 00:39:04:06 
* FROM CLIP NAME:  011/28A TK1 2X
594  A007C003 V     C        16:45:32:14 16:45:35:06 00:39:04:06 00:39:06:23 
* FROM CLIP NAME:  011/28A TK2 1X
595  B008C003 V     C        16:45:35:06 16:45:38:10 00:39:06:23 00:39:10:02 
* FROM CLIP NAME:  011/28A TK2 1X
596  A007C003 V     C        16:45:38:10 16:45:41:00 00:39:10:02 00:39:12:17 
* FROM CLIP NAME:  011/28A TK2 1X
597  A007C002 V     C        16:37:41:12 16:37:46:19 00:39:12:17 00:39:17:24 
* FROM CLIP NAME:  011/28A TK1 2X
598  B008C002 V     C        16:37:46:19 16:37:49:20 00:39:17:24 00:39:21:00 
* FROM CLIP NAME:  011/28A TK1 2X
599  B008C004 V     C        16:48:46:12 16:48:55:06 00:39:21:00 00:39:29:19 
* FROM CLIP NAME:  011/28A TK3 1X
600  B008C003 V     C        16:46:11:11 16:46:15:09 00:39:29:19 00:39:33:17 
* FROM CLIP NAME:  011/28A TK2 1X
601  A007C003 V     C        16:46:15:09 16:46:16:22 00:39:33:17 00:39:35:05 
* FROM CLIP NAME:  011/28A TK2 1X
602  B008C003 V     C        16:46:16:22 16:46:18:23 00:39:35:05 00:39:37:06 
* FROM CLIP NAME:  011/28A TK2 1X
603  B008C002 V     C        16:38:05:09 16:38:08:07 00:39:37:06 00:39:40:04 
* FROM CLIP NAME:  011/28A TK1 2X
604  A007C003 V     C        16:46:21:23 16:46:26:15 00:39:40:04 00:39:44:21 
* FROM CLIP NAME:  011/28A TK2 1X
605  B008C004 V     C        16:50:04:02 16:50:09:09 00:39:44:21 00:39:50:03 
* FROM CLIP NAME:  011/28A TK3 1X
606  B008C003 V     C        16:46:32:10 16:46:34:15 00:39:50:03 00:39:52:08 
* FROM CLIP NAME:  011/28A TK2 1X
607  A007C004 V     C        16:50:09:08 16:50:11:10 00:39:52:08 00:39:54:10 
* FROM CLIP NAME:  011/28A TK3 1X
608  B008C004 V     C        16:50:17:14 16:50:20:14 00:39:54:10 00:39:57:10 
* FROM CLIP NAME:  011/28A TK3 1X
609  B008C004 V     C        16:50:20:14 16:50:21:00 00:39:57:10 00:39:57:21 
* FROM CLIP NAME:  011/28A TK3 1X
610  A006C010 V     C        14:21:47:10 14:21:47:20 00:39:57:21 00:39:58:06 
* FROM CLIP NAME:  011/27_28 TK3 1X CUE2
611  A006C010 V     C        14:21:47:20 14:21:49:01 00:39:58:06 00:39:59:12 
* FROM CLIP NAME:  011/27_28 TK3 1X CUE2
612  B007C024 V     C        14:04:03:00 14:04:07:00 00:39:59:12 00:40:03:12 
* FROM CLIP NAME:  011/27_28 TK2 1X
613  B007C023 V     C        13:45:12:14 13:45:18:21 00:40:03:12 00:40:09:19 
* FROM CLIP NAME:  011/27_28 TK1 2X
614  B007C024 V     C        14:04:12:24 14:04:14:21 00:40:09:19 00:40:11:16 
* FROM CLIP NAME:  011/27_28 TK2 1X
615  A006C010 V     C        14:23:39:01 14:23:44:24 00:40:11:16 00:40:17:14 
* FROM CLIP NAME:  011/27_28 TK3 1X CUE2
616  B007C028 V     C        14:23:45:02 14:23:47:05 00:40:17:14 00:40:19:17 
* FROM CLIP NAME:  011/27_28 TK3 1X CUE2
617  A006C010 V     C        14:24:26:19 14:24:36:23 00:40:19:17 00:40:29:21 
* FROM CLIP NAME:  011/27_28 TK3 1X CUE2
618  B007C028 V     C        14:24:36:23 14:24:40:03 00:40:29:21 00:40:33:01 
* FROM CLIP NAME:  011/27_28 TK3 1X CUE2
619  A006C010 V     C        14:24:41:01 14:24:42:24 00:40:33:01 00:40:34:24 
* FROM CLIP NAME:  011/27_28 TK3 1X CUE2
620  B007C028 V     C        14:24:42:24 14:24:46:19 00:40:34:24 00:40:38:19 
* FROM CLIP NAME:  011/27_28 TK3 1X CUE2
621  A111C006 V     C        10:42:05:13 10:42:07:22 00:40:38:19 00:40:41:03 
* FROM CLIP NAME:  011/29 2TK 1X
622  B034C005 V     C        10:33:13:18 10:33:17:07 00:40:41:03 00:40:44:17 
* FROM CLIP NAME:  011/29 1TK 1X
623  A111C005 V     C        10:33:17:07 10:33:21:05 00:40:44:17 00:40:48:15 
* FROM CLIP NAME:  11/29 TK1 1X
624  B034C005 V     C        10:33:21:05 10:33:22:13 00:40:48:15 00:40:49:23 
* FROM CLIP NAME:  011/29 1TK 1X
625  A111C005 V     C        10:33:22:13 10:33:24:08 00:40:49:23 00:40:51:18 
* FROM CLIP NAME:  11/29 TK1 1X
626  B034C005 V     C        10:33:24:08 10:33:28:18 00:40:51:18 00:40:56:03 
* FROM CLIP NAME:  011/29 1TK 1X
627  A111C005 V     C        10:33:28:18 10:33:32:24 00:40:56:03 00:41:00:09 
* FROM CLIP NAME:  11/29 TK1 1X
628  B034C005 V     C        10:36:12:14 10:36:19:20 00:41:00:09 00:41:07:15 
* FROM CLIP NAME:  011/29 1TK 1X
629  B034C006 V     C        10:42:32:21 10:42:35:19 00:41:07:15 00:41:10:13 
* FROM CLIP NAME:  011/29 2TK 1X
630  B034C005 V     C        10:36:22:24 10:36:26:17 00:41:10:13 00:41:14:06 
* FROM CLIP NAME:  011/29 1TK 1X
631  A111C005 V     C        10:36:26:17 10:36:28:21 00:41:14:06 00:41:16:10 
* FROM CLIP NAME:  11/29 TK1 1X
632  B034C005 V     C        10:36:28:21 10:36:32:13 00:41:16:10 00:41:20:02 
* FROM CLIP NAME:  011/29 1TK 1X
633  A111C006 V     C        10:42:46:07 10:42:50:12 00:41:20:02 00:41:24:07 
* FROM CLIP NAME:  011/29 2TK 1X
634  20230802 V     C        10:27:09:06 10:27:14:12 00:41:24:07 00:41:29:13 
* FROM CLIP NAME:  011/30 CLAQ TK1 1X BOA
635  20230802 V     C        10:27:14:09 10:27:21:23 00:41:29:13 00:41:37:02 
* FROM CLIP NAME:  011/30 CLAQ TK1 1X BOA
636  20230802 V     C        10:34:08:17 10:34:10:12 00:41:37:02 00:41:38:22 
* FROM CLIP NAME:  011/30 TK2 1X BOA
637  20230802 V     C        10:27:24:11 10:27:28:23 00:41:38:22 00:41:43:09 
* FROM CLIP NAME:  011/30 CLAQ TK1 1X BOA
638  20230802 V     C        10:27:28:23 10:27:38:17 00:41:43:09 00:41:53:03 
* FROM CLIP NAME:  011/30 CLAQ TK1 1X BOA
639  20230802 V     C        10:27:38:21 10:27:40:20 00:41:53:03 00:41:55:02 
* FROM CLIP NAME:  011/30 CLAQ TK1 1X BOA
640  20230802 V     C        10:27:40:20 10:27:47:24 00:41:55:02 00:42:02:06 
* FROM CLIP NAME:  011/30 CLAQ TK1 1X BOA
641  20230802 V     C        10:27:47:24 10:27:53:24 00:42:02:06 00:42:08:06 
* FROM CLIP NAME:  011/30 CLAQ TK1 1X BOA
642  20230802 V     C        10:27:53:24 10:27:59:14 00:42:08:06 00:42:13:21 
* FROM CLIP NAME:  011/30 CLAQ TK1 1X BOA
643  20230802 V     C        10:27:59:14 10:28:01:12 00:42:13:21 00:42:15:19 
* FROM CLIP NAME:  011/30 CLAQ TK1 1X BOA
644  20230802 V     C        10:28:01:13 10:28:03:10 00:42:15:19 00:42:17:16 
* FROM CLIP NAME:  011/30 CLAQ TK1 1X BOA
645  20230802 V     C        10:34:45:13 10:34:47:09 00:42:17:16 00:42:19:12 
* FROM CLIP NAME:  011/30 TK2 1X BOA
646  20230802 V     C        10:28:05:11 10:28:07:11 00:42:19:12 00:42:21:12 
* FROM CLIP NAME:  011/30 CLAQ TK1 1X BOA
647  20230802 V     C        10:34:48:18 10:34:51:16 00:42:21:12 00:42:24:10 
* FROM CLIP NAME:  011/30 TK2 1X BOA
648  20230802 V     C        10:28:11:11 10:28:16:11 00:42:24:10 00:42:29:10 
* FROM CLIP NAME:  011/30 CLAQ TK1 1X BOA
649  20230802 V     C        10:28:16:11 10:28:23:23 00:42:29:10 00:42:36:22 
* FROM CLIP NAME:  011/30 CLAQ TK1 1X BOA
650  20230802 V     C        10:37:13:15 10:37:15:05 00:42:36:22 00:42:38:12 
* FROM CLIP NAME:  011/30 TK3 1X BOA
651  20230802 V     C        10:37:15:05 10:37:18:09 00:42:38:12 00:42:41:16 
* FROM CLIP NAME:  011/30 TK3 1X BOA
652  20230802 V     C        10:37:18:09 10:37:22:22 00:42:41:16 00:42:46:04 
* FROM CLIP NAME:  011/30 TK3 1X BOA
653  20230802 V     C        10:37:23:16 10:37:31:07 00:42:46:04 00:42:53:20 
* FROM CLIP NAME:  011/30 TK3 1X BOA
654  20230802 V     C        10:37:31:07 10:37:37:06 00:42:53:20 00:42:59:19 
* FROM CLIP NAME:  011/30 TK3 1X BOA
655  20230802 V     C        10:37:37:10 10:37:38:14 00:42:59:19 00:43:00:23 
* FROM CLIP NAME:  011/30 TK3 1X BOA
656  20230802 V     C        10:35:32:12 10:35:37:09 00:43:00:23 00:43:05:20 
* FROM CLIP NAME:  011/30 TK2 1X BOA
657  20230802 V     C        10:35:37:09 10:35:40:17 00:43:05:20 00:43:09:03 
* FROM CLIP NAME:  011/30 TK2 1X BOA
658  20230802 V     C        10:37:48:03 10:37:48:07 00:43:09:03 00:43:09:07 
* FROM CLIP NAME:  011/30 TK3 1X BOA
659  20230802 V     C        10:37:48:07 10:37:51:19 00:43:09:07 00:43:12:19 
* FROM CLIP NAME:  011/30 TK3 1X BOA
660  20230802 V     C        10:37:51:19 10:37:54:12 00:43:12:19 00:43:15:12 
* FROM CLIP NAME:  011/30 TK3 1X BOA
661  20230802 V     C        10:37:54:12 10:37:56:13 00:43:15:12 00:43:17:13 
* FROM CLIP NAME:  011/30 TK3 1X BOA
662  B003C004 V     C        10:25:13:11 10:25:19:02 00:43:17:13 00:43:23:04 
* FROM CLIP NAME:  011/31 TK2 2X SM
663  B003C004 V     C        10:25:31:19 10:25:34:07 00:43:23:04 00:43:25:17 
* FROM CLIP NAME:  011/31 TK2 2X SM 
* LOC: 00:43:24:14 BLUE    REZISE
664  B003C004 V     C        10:25:42:07 10:25:44:13 00:43:25:17 00:43:27:23 
* FROM CLIP NAME:  011/31 TK2 2X SM 
* LOC: 00:43:26:20 BLUE    REZISE
665  A002C001 V     C        10:28:34:03 10:28:41:06 00:43:27:23 00:43:35:01 
* FROM CLIP NAME:  011/31 TK1 1X SM
666  A002C001 V     C        10:28:41:06 10:29:04:03 00:43:35:01 00:43:41:15 
M2   A002C001       087.5                10:28:41:06 
* FROM CLIP NAME:  011/31 TK1 1X SM
667  B003C004 V     C        10:26:27:14 10:26:47:01 00:43:41:15 00:43:47:05 
M2   B003C004       087.5                10:26:27:14 
* FROM CLIP NAME:  011/31 TK2 2X SM
668  B003C002 V     C        10:15:40:19 10:15:52:03 00:43:47:05 00:43:50:12 
M2   B003C002       087.5                10:15:40:19 
* FROM CLIP NAME:  011/31 TK1 1X SLOW_MOTION_01
669  B004C001 V     C        11:05:16:20 11:05:27:09 00:43:50:12 00:44:01:01 
* FROM CLIP NAME:  011/31 TK4
670  A003C003 V     C        11:05:27:09 11:05:37:19 00:44:01:01 00:44:11:11 
* FROM CLIP NAME:  011/31 TK4
671  C059C001 V     C        15:19:56:10 15:20:01:18 00:44:11:11 00:44:16:19 
* FROM CLIP NAME:  011/31 TK1 1X 
* LOC: 00:44:11:11 CYAN    CENA 32 ANULADA
672  B066C001 V     C        15:20:01:18 15:20:04:01 00:44:16:19 00:44:19:02 
* FROM CLIP NAME:  011/31 TK1 1X
673  A136C001 V     C        15:20:04:01 15:20:08:11 00:44:19:02 00:44:23:12 
* FROM CLIP NAME:  011/31 TK1 1X
674  B066C001 V     C        15:20:08:11 15:20:14:11 00:44:23:12 00:44:29:12 
* FROM CLIP NAME:  011/31 TK1 1X
675  A136C001 V     C        15:20:14:11 15:20:21:05 00:44:29:12 00:44:36:06 
* FROM CLIP NAME:  011/31 TK1 1X
676  B066C001 V     C        15:20:21:05 15:20:25:14 00:44:36:06 00:44:40:15 
* FROM CLIP NAME:  011/31 TK1 1X
677  A136C001 V     C        15:20:25:14 15:20:29:05 00:44:40:15 00:44:44:06 
* FROM CLIP NAME:  011/31 TK1 1X
678  A136C001 V     C        15:20:29:05 15:20:31:17 00:44:44:06 00:44:46:18 
* FROM CLIP NAME:  011/31 TK1 1X
679  B066C001 V     C        15:20:31:17 15:20:33:10 00:44:46:18 00:44:48:11 
* FROM CLIP NAME:  011/31 TK1 1X
680  A136C001 V     C        15:20:33:10 15:20:34:22 00:44:48:11 00:44:49:23 
* FROM CLIP NAME:  011/31 TK1 1X
681  B066C001 V     C        15:20:34:22 15:20:37:14 00:44:49:23 00:44:52:15 
* FROM CLIP NAME:  011/31 TK1 1X
682  C059C002 V     C        15:23:57:22 15:24:03:13 00:44:52:15 00:44:58:06 
* FROM CLIP NAME:  011/31 TK2 1X
683  A001_C01 V     C        00:00:27:14 00:00:30:17 00:44:58:06 00:45:01:09 
* FROM CLIP NAME:  CACAU_SS_DRONE_CASA_SALOMAO
684  20230824 V     C        11:43:22:16 11:43:27:15 00:45:01:09 00:45:06:08 
* FROM CLIP NAME:  011/34 CLAQ TK1 1X
685  20230824 V     C        11:43:27:15 11:43:39:05 00:45:06:08 00:45:17:23 
* FROM CLIP NAME:  011/34 CLAQ TK1 1X
686  20230824 V     C        11:43:39:05 11:43:47:19 00:45:17:23 00:45:26:12 
* FROM CLIP NAME:  011/34 CLAQ TK1 1X
687  20230824 V     C        11:43:47:19 11:43:50:10 00:45:26:12 00:45:29:03 
* FROM CLIP NAME:  011/34 CLAQ TK1 1X
688  20230824 V     C        11:43:50:10 11:43:53:15 00:45:29:03 00:45:32:08 
* FROM CLIP NAME:  011/34 CLAQ TK1 1X
689  20230824 V     C        11:43:53:15 11:43:57:23 00:45:32:08 00:45:36:16 
* FROM CLIP NAME:  011/34 CLAQ TK1 1X
690  20230824 V     C        11:43:57:23 11:44:00:09 00:45:36:16 00:45:39:02 
* FROM CLIP NAME:  011/34 CLAQ TK1 1X
691  20230824 V     C        11:44:00:09 11:44:02:03 00:45:39:02 00:45:40:21 
* FROM CLIP NAME:  011/34 CLAQ TK1 1X
692  20230824 V     C        11:44:02:03 11:44:04:14 00:45:40:21 00:45:43:07 
* FROM CLIP NAME:  011/34 CLAQ TK1 1X
693  20230824 V     C        11:44:04:14 11:44:13:05 00:45:43:07 00:45:51:23 
* FROM CLIP NAME:  011/34 CLAQ TK1 1X
694  20230824 V     C        11:44:13:05 11:44:14:23 00:45:51:23 00:45:53:16 
* FROM CLIP NAME:  011/34 CLAQ TK1 1X
695  20230824 V     C        11:44:14:23 11:44:17:04 00:45:53:16 00:45:55:22 
* FROM CLIP NAME:  011/34 CLAQ TK1 1X
696  20230824 V     C        11:48:03:07 11:48:04:06 00:45:55:22 00:45:56:21 
* FROM CLIP NAME:  011/34 TK2 1X
697  20230824 V     C        11:44:18:03 11:44:22:02 00:45:56:21 00:46:00:20 
* FROM CLIP NAME:  011/34 CLAQ TK1 1X
698  20230824 V     C        11:44:22:02 11:44:29:20 00:46:00:20 00:46:08:13 
* FROM CLIP NAME:  011/34 CLAQ TK1 1X
699  20230824 V     C        11:44:29:19 11:44:33:17 00:46:08:13 00:46:12:11 
* FROM CLIP NAME:  011/34 CLAQ TK1 1X
700  20230824 V     C        11:48:05:03 11:48:10:02 00:46:12:11 00:46:17:10 
* FROM CLIP NAME:  011/34 TK2 1X
701  20230824 V     C        11:48:10:02 11:48:16:18 00:46:17:10 00:46:24:01 
* FROM CLIP NAME:  011/34 TK2 1X
702  20230824 V     C        11:44:46:14 11:44:51:02 00:46:24:01 00:46:28:14 
* FROM CLIP NAME:  011/34 CLAQ TK1 1X
703  20230824 V     C        11:44:51:02 11:44:54:04 00:46:28:14 00:46:31:16 
* FROM CLIP NAME:  011/34 CLAQ TK1 1X
704  20230824 V     C        11:44:54:04 11:44:56:20 00:46:31:16 00:46:34:07 
* FROM CLIP NAME:  011/34 CLAQ TK1 1X
705  20230824 V     C        11:49:20:11 11:49:24:08 00:46:34:07 00:46:38:04 
* FROM CLIP NAME:  011/34 TK2 1X 
* LOC: 00:46:37:05 BLUE    REZISE
706  20230824 V     C        11:44:58:24 11:45:02:24 00:46:38:04 00:46:42:04 
* FROM CLIP NAME:  011/34 CLAQ TK1 1X
707  20230824 V     C        11:49:29:11 11:49:33:16 00:46:42:04 00:46:46:09 
* FROM CLIP NAME:  011/34 TK2 1X
708  20230824 V     C        11:49:33:16 11:49:39:14 00:46:46:09 00:46:52:07 
* FROM CLIP NAME:  011/34 TK2 1X
709  20230824 V     C        11:49:39:14 11:49:43:15 00:46:52:07 00:46:56:08 
* FROM CLIP NAME:  011/34 TK2 1X
710  20230824 V     C        11:49:43:15 11:49:45:02 00:46:56:08 00:46:57:20 
* FROM CLIP NAME:  011/34 TK2 1X
711  20230824 V     C        11:49:45:12 11:49:57:09 00:46:57:20 00:47:09:17 
* FROM CLIP NAME:  011/34 TK2 1X
712  20230824 V     C        11:49:57:09 11:50:00:10 00:47:09:17 00:47:12:18 
* FROM CLIP NAME:  011/34 TK2 1X
713  20230824 V     C        11:50:00:10 11:50:03:18 00:47:12:18 00:47:16:01 
* FROM CLIP NAME:  011/34 TK2 1X
714  20230807 V     C        15:34:55:16 15:34:57:04 00:47:16:01 00:47:17:14 
* FROM CLIP NAME:  011/35 CLAQ TK1 1X
715  20230807 V     C        15:34:57:04 15:35:00:10 00:47:17:14 00:47:20:20 
* FROM CLIP NAME:  011/35 CLAQ TK1 1X
716  20230807 V     C        15:35:00:10 15:35:02:20 00:47:20:20 00:47:23:05 
* FROM CLIP NAME:  011/35 CLAQ TK1 1X
717  20230807 V     C        15:36:39:17 15:36:40:20 00:47:23:05 00:47:24:08 
* FROM CLIP NAME:  011/35  TK2 1X
718  20230807 V     C        15:36:40:20 15:36:46:03 00:47:24:08 00:47:29:16 
* FROM CLIP NAME:  011/35  TK2 1X
719  20230807 V     C        15:36:46:03 15:36:50:13 00:47:29:16 00:47:34:01 
* FROM CLIP NAME:  011/35  TK2 1X
720  20230807 V     C        15:36:50:13 15:36:52:22 00:47:34:01 00:47:36:10 
* FROM CLIP NAME:  011/35  TK2 1X
721  20230807 V     C        15:36:52:22 15:36:55:01 00:47:36:10 00:47:38:14 
* FROM CLIP NAME:  011/35  TK2 1X
722  20230807 V     C        15:36:55:01 15:36:57:24 00:47:38:14 00:47:41:12 
* FROM CLIP NAME:  011/35  TK2 1X
723  20230807 V     C        15:36:57:24 15:37:00:09 00:47:41:12 00:47:43:22 
* FROM CLIP NAME:  011/35  TK2 1X
724  20230807 V     C        15:37:00:09 15:37:02:14 00:47:43:22 00:47:46:02 
* FROM CLIP NAME:  011/35  TK2 1X
725  20230807 V     C        15:37:02:14 15:37:05:12 00:47:46:02 00:47:49:00 
* FROM CLIP NAME:  011/35  TK2 1X
726  20230807 V     C        15:37:05:12 15:37:07:10 00:47:49:00 00:47:50:23 
* FROM CLIP NAME:  011/35  TK2 1X
727  20230807 V     C        15:37:07:10 15:37:11:01 00:47:50:23 00:47:54:14 
* FROM CLIP NAME:  011/35  TK2 1X
728  20230807 V     C        15:37:11:01 15:37:15:14 00:47:54:14 00:47:59:02 
* FROM CLIP NAME:  011/35  TK2 1X
729  20230807 V     C        15:37:15:14 15:37:18:10 00:47:59:02 00:48:01:23 
* FROM CLIP NAME:  011/35  TK2 1X
730  20230807 V     C        15:37:18:10 15:37:23:00 00:48:01:23 00:48:06:13 
* FROM CLIP NAME:  011/35  TK2 1X
731  20230807 V     C        15:37:23:00 15:37:26:13 00:48:06:13 00:48:10:01 
* FROM CLIP NAME:  011/35  TK2 1X
732  20230807 V     C        15:41:02:05 15:41:05:24 00:48:10:01 00:48:13:20 
* FROM CLIP NAME:  011/35  TK3 1X
733  20230807 V     C        16:15:16:18 16:15:19:08 00:48:13:20 00:48:16:10 
* FROM CLIP NAME:  011/35+012/05  INSERT VIDEO DA SORAIA E REGINA
734  20230807 V     C        15:41:08:14 15:41:11:11 00:48:16:10 00:48:19:07 
* FROM CLIP NAME:  011/35  TK3 1X
735  20230807 V     C        15:44:01:03 15:44:02:16 00:48:19:07 00:48:20:20 
* FROM CLIP NAME:  011/35  TK4 1X
736  20230807 V     C        15:44:02:16 15:44:03:20 00:48:20:20 00:48:21:24 
* FROM CLIP NAME:  011/35  TK4 1X
737  20230807 V     C        16:15:22:09 16:15:24:11 00:48:21:24 00:48:24:01 
* FROM CLIP NAME:  011/35+012/05  INSERT VIDEO DA SORAIA E REGINA
738  20230807 V     C        15:44:05:22 15:44:11:07 00:48:24:01 00:48:29:11 
* FROM CLIP NAME:  011/35  TK4 1X
739  20230807 V     C        15:44:11:07 15:44:12:22 00:48:29:11 00:48:31:01 
* FROM CLIP NAME:  011/35  TK4 1X
740  20230807 V     C        15:44:12:22 15:44:17:15 00:48:31:01 00:48:35:19 
* FROM CLIP NAME:  011/35  TK4 1X
741  20230807 V     C        15:44:17:15 15:44:20:03 00:48:35:19 00:48:38:07 
* FROM CLIP NAME:  011/35  TK4 1X
742  20230807 V     C        16:15:40:12 16:15:42:11 00:48:38:07 00:48:40:06 
* FROM CLIP NAME:  011/35+012/05  INSERT VIDEO DA SORAIA E REGINA
743  E002L002 V     C        06:36:11:11 06:36:15:16 00:48:40:06 00:48:44:11 
* FROM CLIP NAME:  011/36 TK1 2X
744  E004C004 V     C        06:50:42:13 06:51:08:07 00:48:44:11 00:49:10:05 
* FROM CLIP NAME:  011/36 TK1 2X
745  E002L002 V     C        06:36:41:12 06:36:49:11 00:49:10:05 00:49:18:04 
* FROM CLIP NAME:  011/36 TK1 2X
746  A003C016 V     C        14:16:44:07 14:17:00:18 00:49:18:04 00:49:34:15 
* FROM CLIP NAME:  011/37 TK1 1X
747  B004C013 V     C        14:17:00:18 14:17:35:03 00:49:34:15 00:50:09:00 
* FROM CLIP NAME:  011/37 TK1 1X
748  B004C015 V     C        14:26:20:16 14:26:24:19 00:50:09:00 00:50:13:03 
* FROM CLIP NAME:  011/37+012/03 TK2 2X
749  A003C018 V     C        14:26:24:20 14:26:27:20 00:50:13:03 00:50:16:03 
* FROM CLIP NAME:  011/37+012/03 TK2 2X
750  B004C015 V     C        14:26:28:14 14:26:31:21 00:50:16:03 00:50:19:10 
* FROM CLIP NAME:  011/37+012/03 TK2 2X
751  A003C018 V     C        14:26:31:22 14:26:34:00 00:50:19:10 00:50:21:13 
* FROM CLIP NAME:  011/37+012/03 TK2 2X
752  B004C015 V     C        14:26:33:24 14:26:36:16 00:50:21:13 00:50:24:05 
* FROM CLIP NAME:  011/37+012/03 TK2 2X
753  A003C018 V     C        14:26:36:17 14:26:40:21 00:50:24:05 00:50:28:09 
* FROM CLIP NAME:  011/37+012/03 TK2 2X
754  A003C016 V     C        14:17:56:23 14:18:02:06 00:50:28:09 00:50:33:17 
* FROM CLIP NAME:  011/37 TK1 1X
755  B004C013 V     C        14:18:02:07 14:18:07:04 00:50:33:17 00:50:38:14 
* FROM CLIP NAME:  011/37 TK1 1X
756  B004C015 V     C        14:28:01:20 14:28:07:03 00:50:38:14 00:50:43:22 
* FROM CLIP NAME:  011/37+012/03 TK2 2X
757  A003C018 V     C        14:28:07:04 14:28:14:24 00:50:43:22 00:50:51:17 
* FROM CLIP NAME:  011/37+012/03 TK2 2X
758  B004C015 V     C        14:29:20:10 14:29:22:04 00:50:51:17 00:50:53:11 
* FROM CLIP NAME:  011/37+012/03 TK2 2X
759  A003C018 V     C        14:29:22:05 14:29:24:20 00:50:53:11 00:50:56:01 
* FROM CLIP NAME:  011/37+012/03 TK2 2X
760  B004C015 V     C        14:29:24:19 14:29:27:11 00:50:56:01 00:50:58:18 
* FROM CLIP NAME:  011/37+012/03 TK2 2X
761  A003C018 V     C        14:29:27:12 14:29:30:07 00:50:58:18 00:51:01:13 
* FROM CLIP NAME:  011/37+012/03 TK2 2X
762  B004C015 V     C        14:29:33:03 14:29:35:22 00:51:01:13 00:51:04:07 
* FROM CLIP NAME:  011/37+012/03 TK2 2X
763  DJI_2023 V     C        00:00:07:09 00:00:09:18 00:51:04:07 00:51:07:05 
M2   DJI_2023       020.0                00:00:07:09 
* FROM CLIP NAME:  011/38_DRONE02
764  E001R005 V     C        07:30:55:08 07:31:22:16 00:51:07:05 00:51:34:13 
* FROM CLIP NAME:  011/38 TK2 1X
765  E001R005 V     C        07:32:45:22 07:32:49:04 00:51:34:13 00:51:37:20 
* FROM CLIP NAME:  011/38 TK2 1X
766  D001L004 V     C        07:51:07:08 07:51:10:22 00:51:37:20 00:51:41:09 
* FROM CLIP NAME:  011/38 TK5 1X
767  DJI_2023 V     C        00:00:21:21 00:00:27:03 00:51:41:09 00:51:47:23 
M2   DJI_2023       020.0                00:00:21:21 
* FROM CLIP NAME:  011/38_DRONE02
768  D001L001 V     C        07:27:36:19 07:27:38:23 00:51:47:23 00:51:50:02 
* FROM CLIP NAME:  011/38 TK1 2X
769  D001L002 V     C        07:38:24:13 07:38:27:17 00:51:50:02 00:51:53:06 
* FROM CLIP NAME:  011/38 TK3 1X
770  E001R007 V     C        07:42:55:11 07:42:59:09 00:51:53:06 00:51:57:04 
* FROM CLIP NAME:  011/38 TK4 1X
*
* ============================================================
* Marker Metadata
* ------------------------------------------------------------
* 
* Sequence name: CACAU_011_V2
* Number  Color   Marker Name              Start TC    End TC      Duration    Track  Part        Comment
*      1  Blue    BERG                     00:05:39:17                         V1                 REZISE
*      2  Blue    BERG                     00:05:57:05                         V1                 REZISE (ZOOM IN)
*      3  Blue    BERG                     00:06:02:00                         V1                 REZISE
*      4  Blue    BERG                     00:11:47:10                         V1                 REZISE
*      5  Cyan    BERG                     00:16:31:07                         V1                 cena 12 ANULADA
*      6  Blue    BERG                     00:17:45:03                         V1                 REZISE
*      7  White   BERG                     00:22:10:07                         V1                 CÔR - NOITE?
*      8  Yellow  BERG                     00:22:15:18                         V1                 MOTION - LUA
*      9  White   BERG                     00:24:59:07                         V1                 CÔR - NOITE
*     10  Yellow  BERG                     00:25:01:12                         V1                 MOTION - LUA
*     11  White   BERG                     00:25:22:00                         V1                 CÔR - NOITE?
*     12  Yellow  BERG                     00:25:23:21                         V1                 MOTION - LUA
*     13  Blue    BERG                     00:32:50:03                         V1                 REZISE
*     14  Blue    BERG                     00:37:20:08                         V1                 ESTABILIZE
*     15  Blue    BERG                     00:43:24:14                         V1                 REZISE
*     16  Blue    BERG                     00:43:26:20                         V1                 REZISE
*     17  Cyan    BERG                     00:44:11:11                         V1                 CENA 32 ANULADA
*     18  Blue    BERG                     00:46:37:05                         V1                 REZISE